/* XPM */
static char * deutsch_xpm[] = {
"17 17 4 1",
" 	c None",
".	c #F70404",
"+	c #359921",
"@	c #0E31F4",
"                 ",
"    ..           ",
"   .  .          ",
"   .  .          ",
"   ....          ",
"  .    .         ",
"  .    .         ",
"  .    .         ",
"            +++  ",
"           +     ",
"    @@@   +      ",
"    @  @  +      ",
"    @  @  +      ",
"    @@@    +     ",
"    @  @    +++  ",
"    @  @         ",
"    @@@          "};
