/* XPM */
static char * ende2_xpm[] = {
"60 48 759 2",
"  	c None",
". 	c #C5BA13",
"+ 	c #E5D931",
"@ 	c #F6E70C",
"# 	c #F7E810",
"$ 	c #EBDF26",
"% 	c #F5E715",
"& 	c #E3D50D",
"* 	c #E2D50E",
"= 	c #F9EA0C",
"- 	c #EFE111",
"; 	c #EDDF1E",
"> 	c #F6E713",
", 	c #EBDF24",
"' 	c #F3E515",
") 	c #F8E90C",
"! 	c #E4D71F",
"~ 	c #F8EA0E",
"{ 	c #EEE124",
"] 	c #F8E90F",
"^ 	c #EDE020",
"/ 	c #EDDF0C",
"( 	c #EBDD0D",
"_ 	c #F6E711",
": 	c #F3E519",
"< 	c #F3E51E",
"[ 	c #EEE122",
"} 	c #EEE125",
"| 	c #F1E423",
"1 	c #F9EA0D",
"2 	c #F0E324",
"3 	c #F0E10E",
"4 	c #EDDF0E",
"5 	c #F7E911",
"6 	c #F4E61A",
"7 	c #F4E61E",
"8 	c #F1E426",
"9 	c #F3E628",
"0 	c #D3B28B",
"a 	c #F4E72B",
"b 	c #D2B18A",
"c 	c #C2A480",
"d 	c #A78E6E",
"e 	c #927C61",
"f 	c #86745B",
"g 	c #87745C",
"h 	c #9A8365",
"i 	c #B79A77",
"j 	c #CEAE87",
"k 	c #F5E92D",
"l 	c #CEAD87",
"m 	c #B49774",
"n 	c #947E60",
"o 	c #7F6E57",
"p 	c #7E6D56",
"q 	c #8B765C",
"r 	c #A1896B",
"s 	c #C0A27E",
"t 	c #D1B18A",
"u 	c #CAAA85",
"v 	c #968267",
"w 	c #695F51",
"x 	c #524C44",
"y 	c #45403B",
"z 	c #3E3B35",
"A 	c #3D3A35",
"B 	c #45403A",
"C 	c #5C5346",
"D 	c #8B775C",
"E 	c #BEA07B",
"F 	c #F7E80C",
"G 	c #F6E70D",
"H 	c #F4E40E",
"I 	c #F2E20F",
"J 	c #F6E60E",
"K 	c #BB9D78",
"L 	c #857258",
"M 	c #564E43",
"N 	c #403D38",
"O 	c #393633",
"P 	c #3A3833",
"Q 	c #4C4841",
"R 	c #62594D",
"S 	c #8F7C63",
"T 	c #C8A984",
"U 	c #8A7861",
"V 	c #575046",
"W 	c #403B35",
"X 	c #3B3631",
"Y 	c #393530",
"Z 	c #383430",
"` 	c #36332F",
" .	c #35322F",
"..	c #353330",
"+.	c #423E39",
"@.	c #746551",
"#.	c #BC9E7A",
"$.	c #F3E40D",
"%.	c #F2E10F",
"&.	c #F3E30F",
"*.	c #F5E60E",
"=.	c #F7E80D",
"-.	c #F6E70E",
";.	c #F4E410",
">.	c #F2E213",
",.	c #F1E013",
"'.	c #F3E310",
").	c #F5E50E",
"!.	c #F7E70D",
"~.	c #F5E82E",
"{.	c #B99B77",
"].	c #6D604D",
"^.	c #3E3B36",
"/.	c #33312F",
"(.	c #34312E",
"_.	c #35332F",
":.	c #37342F",
"<.	c #383530",
"[.	c #393630",
"}.	c #3D3934",
"|.	c #514B43",
"1.	c #82715C",
"2.	c #CDAD87",
"3.	c #A38C70",
"4.	c #5E564B",
"5.	c #423C34",
"6.	c #3F3932",
"7.	c #3E3831",
"8.	c #3D3831",
"9.	c #3B3731",
"0.	c #3A3630",
"a.	c #433F39",
"b.	c #816F58",
"c.	c #CBAB85",
"d.	c #F3E30D",
"e.	c #EBDA13",
"f.	c #EAD816",
"g.	c #F0DF15",
"h.	c #F4E411",
"i.	c #F7E70E",
"j.	c #F8E90D",
"k.	c #F7E80F",
"l.	c #F6E612",
"m.	c #F6E515",
"n.	c #F5E415",
"o.	c #F6E611",
"p.	c #F6E70F",
"q.	c #F2E112",
"r.	c #F1E011",
"s.	c #F5E50D",
"t.	c #D3B38B",
"u.	c #CAAA84",
"v.	c #796953",
"w.	c #3E3B37",
"x.	c #33312E",
"y.	c #3C3831",
"z.	c #3E3932",
"A.	c #403B33",
"B.	c #585248",
"C.	c #9D876D",
"D.	c #756A5A",
"E.	c #4C443B",
"F.	c #433C34",
"G.	c #423C33",
"H.	c #413B33",
"I.	c #403A32",
"J.	c #3C3731",
"K.	c #383531",
"L.	c #5F574B",
"M.	c #B49876",
"N.	c #E9D23E",
"O.	c #EAD61D",
"P.	c #EBD81E",
"Q.	c #F1DE1A",
"R.	c #F5E416",
"S.	c #F7E611",
"T.	c #F8E80E",
"U.	c #F7E613",
"V.	c #F6E514",
"W.	c #F7E711",
"X.	c #F8E80F",
"Y.	c #F7E70F",
"Z.	c #F3E215",
"`.	c #EBD81B",
" +	c #E5D021",
".+	c #EAD53D",
"++	c #AE9372",
"@+	c #575047",
"#+	c #363330",
"$+	c #433C33",
"%+	c #494239",
"&+	c #6D6457",
"*+	c #C7A883",
"=+	c #A68E71",
"-+	c #60574A",
";+	c #494136",
">+	c #474035",
",+	c #473F35",
"'+	c #453E34",
")+	c #443D34",
"!+	c #3D3932",
"~+	c #47423B",
"{+	c #766958",
"]+	c #C5A681",
"^+	c #D4B289",
"/+	c #D6B176",
"(+	c #C7A861",
"_+	c #D8B75E",
":+	c #E1C159",
"<+	c #D6BC4D",
"[+	c #D9C046",
"}+	c #DEC541",
"|+	c #E5CC3F",
"1+	c #ECD23A",
"2+	c #ECD23B",
"3+	c #EBD13C",
"4+	c #EBD03E",
"5+	c #EBCF3F",
"6+	c #EBD14B",
"7+	c #EBD24E",
"8+	c #E9D056",
"9+	c #E6CA5B",
"0+	c #E3C359",
"a+	c #E2C167",
"b+	c #DBBA72",
"c+	c #D3B176",
"d+	c #6D6253",
"e+	c #433F3A",
"f+	c #484035",
"g+	c #5C5448",
"h+	c #A18A6F",
"i+	c #CFAE88",
"j+	c #84735F",
"k+	c #564C3F",
"l+	c #4D4336",
"m+	c #4C4336",
"n+	c #4B4336",
"o+	c #4A4236",
"p+	c #484135",
"q+	c #463F35",
"r+	c #423B33",
"s+	c #474139",
"t+	c #6B6154",
"u+	c #B79A79",
"v+	c #D3B28A",
"w+	c #D9B37C",
"x+	c #DBB378",
"y+	c #B39776",
"z+	c #645C51",
"A+	c #443F38",
"B+	c #534A3D",
"C+	c #7D6E5C",
"D+	c #B99D7B",
"E+	c #6E6252",
"F+	c #534839",
"G+	c #514738",
"H+	c #514638",
"I+	c #504638",
"J+	c #4F4537",
"K+	c #4D4437",
"L+	c #4B4236",
"M+	c #494137",
"N+	c #625A4F",
"O+	c #A58D72",
"P+	c #D8B27E",
"Q+	c #DAB277",
"R+	c #D9B076",
"S+	c #D7AE74",
"T+	c #D5AB72",
"U+	c #D4AB71",
"V+	c #DAB177",
"W+	c #D4AC73",
"X+	c #D2AA71",
"Y+	c #D5AD73",
"Z+	c #D6AE74",
"`+	c #D8B075",
" @	c #D8B27F",
".@	c #9F896F",
"+@	c #5D564D",
"@@	c #474036",
"#@	c #524839",
"$@	c #685E4F",
"%@	c #B69A79",
"&@	c #978168",
"*@	c #635746",
"=@	c #554A39",
"-@	c #554A3A",
";@	c #564A3A",
">@	c #554939",
",@	c #8E7C67",
"'@	c #D0AF89",
")@	c #D6B282",
"!@	c #D9B176",
"~@	c #D3A971",
"{@	c #CFA16D",
"]@	c #CE9F6C",
"^@	c #C89A69",
"/@	c #C59767",
"(@	c #CCA06B",
"_@	c #D6AB73",
":@	c #CB9E6B",
"<@	c #C69768",
"[@	c #C79968",
"}@	c #C79A68",
"|@	c #CA9D6A",
"1@	c #D1A76F",
"2@	c #D6B283",
"3@	c #CFAF89",
"4@	c #887763",
"5@	c #585044",
"6@	c #4C4337",
"7@	c #605544",
"8@	c #917D64",
"9@	c #C9A984",
"0@	c #7C6D59",
"a@	c #5D513E",
"b@	c #594D3B",
"c@	c #5A4E3B",
"d@	c #5B4E3B",
"e@	c #584C3A",
"f@	c #574C3E",
"g@	c #786B59",
"h@	c #C4A581",
"i@	c #D4B287",
"j@	c #D8AF76",
"k@	c #D1A56F",
"l@	c #CB9B6A",
"m@	c #CFA16C",
"n@	c #CDA06C",
"o@	c #D1A46F",
"p@	c #D7AD74",
"q@	c #D6AC73",
"r@	c #D2A46F",
"s@	c #D0A06D",
"t@	c #CD9E6B",
"u@	c #CB9D6A",
"v@	c #C89968",
"w@	c #CA9B69",
"x@	c #D9B178",
"y@	c #D4B288",
"z@	c #726656",
"A@	c #554B3D",
"B@	c #5B4F3D",
"C@	c #756855",
"D@	c #B49877",
"E@	c #726450",
"F@	c #5E513D",
"G@	c #5E503D",
"H@	c #5F513D",
"I@	c #60513D",
"J@	c #5C4F3C",
"K@	c #5A4D3B",
"L@	c #584C3B",
"M@	c #695D4C",
"N@	c #A58D70",
"O@	c #D7B17B",
"P@	c #D1A770",
"Q@	c #CDA16C",
"R@	c #CEA16D",
"S@	c #D4A871",
"T@	c #DAB37D",
"U@	c #E2C398",
"V@	c #E3C79E",
"W@	c #DCB782",
"X@	c #D9B177",
"Y@	c #DBB680",
"Z@	c #DBB682",
"`@	c #D8AF77",
" #	c #D4AA72",
".#	c #D0A46E",
"+#	c #D2A470",
"@#	c #D6AA73",
"##	c #D9B37D",
"$#	c #A0896D",
"%#	c #655A4A",
"&#	c #574C3B",
"*#	c #5D503C",
"=#	c #6C5F4D",
"-#	c #B09474",
";#	c #B29776",
">#	c #74644F",
",#	c #62533E",
"'#	c #63543E",
")#	c #64553F",
"!#	c #65553F",
"~#	c #61533E",
"{#	c #615441",
"]#	c #82715B",
"^#	c #D5B285",
"/#	c #D2AA72",
"(#	c #D4AB72",
"_#	c #E3C599",
":#	c #F8F1E7",
"<#	c #FDFBF7",
"[#	c #FEFEFD",
"}#	c #FAF5ED",
"|#	c #E1C090",
"1#	c #DCB57B",
"2#	c #EEDCC2",
"3#	c #FCF8F3",
"4#	c #FBF6F0",
"5#	c #F4EADA",
"6#	c #E1C293",
"7#	c #D5B286",
"8#	c #7C6D58",
"9#	c #5F5340",
"0#	c #6F604C",
"a#	c #AD9372",
"b#	c #C3A480",
"c#	c #7C6B54",
"d#	c #675840",
"e#	c #685740",
"f#	c #695940",
"g#	c #6A5941",
"h#	c #695840",
"i#	c #66563F",
"j#	c #A58D6E",
"k#	c #DAB278",
"l#	c #E0BD8A",
"m#	c #FBF8F2",
"n#	c #F3F4FE",
"o#	c #C2C6FC",
"p#	c #DCDCF6",
"q#	c #F0F0FC",
"r#	c #F2E3CE",
"s#	c #DBB379",
"t#	c #E6CBA4",
"u#	c #FDFCFD",
"v#	c #F9F7F7",
"w#	c #EEEFFD",
"x#	c #F8F9FF",
"y#	c #FCF9F4",
"z#	c #A1896C",
"A#	c #6C5E4A",
"B#	c #665740",
"C#	c #766751",
"D#	c #CFAE87",
"E#	c #89765C",
"F#	c #6F5D44",
"G#	c #6C5B41",
"H#	c #6E5C42",
"I#	c #705D42",
"J#	c #6F5D42",
"K#	c #6C5A41",
"L#	c #6A5942",
"M#	c #7D6D56",
"N#	c #C4A580",
"O#	c #EEDABE",
"P#	c #DBDEFD",
"Q#	c #3E4DF7",
"R#	c #1527F1",
"S#	c #2334F3",
"T#	c #3846F3",
"U#	c #C7C2DD",
"V#	c #DBB479",
"W#	c #E8D6BF",
"X#	c #7C85F8",
"Y#	c #515CF1",
"Z#	c #2435F6",
"`#	c #5260F8",
" $	c #F3E5D2",
".$	c #D5B287",
"+$	c #C2A47F",
"@$	c #786953",
"#$	c #695941",
"$$	c #6D5C43",
"%$	c #837158",
"&$	c #9C8567",
"*$	c #78654A",
"=$	c #715E43",
"-$	c #736044",
";$	c #756144",
">$	c #766245",
",$	c #725F43",
"'$	c #726147",
")$	c #8F7B61",
"!$	c #D0B089",
"~$	c #DDD3D6",
"{$	c #3848F4",
"]$	c #0B1371",
"^$	c #04082C",
"/$	c #0F1351",
"($	c #111980",
"_$	c #6A64C1",
":$	c #9989B0",
"<$	c #1524D0",
"[$	c #19208B",
"}$	c #0A136E",
"|$	c #0D188D",
"1$	c #3746EE",
"2$	c #DDDBEF",
"3$	c #DCB67E",
"4$	c #D8B380",
"5$	c #89765E",
"6$	c #715F46",
"7$	c #756348",
"8$	c #968063",
"9$	c #B69A77",
"0$	c #836F53",
"a$	c #776346",
"b$	c #786445",
"c$	c #7B6646",
"d$	c #7D6747",
"e$	c #7A6546",
"f$	c #7B684E",
"g$	c #A58C6D",
"h$	c #DAB37A",
"i$	c #A69BC3",
"j$	c #111FBC",
"k$	c #000104",
"l$	c #000000",
"m$	c #0E0B07",
"n$	c #0D0A09",
"o$	c #B79770",
"p$	c #C6A47E",
"q$	c #161528",
"r$	c #0D0B07",
"s$	c #010100",
"t$	c #000001",
"u$	c #0F1BA3",
"v$	c #7E82E7",
"w$	c #DCB47B",
"x$	c #A0886A",
"y$	c #78664D",
"z$	c #7E6B50",
"A$	c #B29674",
"B$	c #9C8464",
"C$	c #836D4E",
"D$	c #7E6747",
"E$	c #816A48",
"F$	c #846C49",
"G$	c #876E4A",
"H$	c #806F56",
"I$	c #B69A78",
"J$	c #C3A289",
"K$	c #312F58",
"L$	c #010101",
"M$	c #080704",
"N$	c #1E1810",
"O$	c #9A7E54",
"P$	c #967A52",
"Q$	c #15110B",
"R$	c #050403",
"S$	c #0D1037",
"T$	c #8C7DB0",
"U$	c #7C6C54",
"V$	c #806B4C",
"W$	c #978061",
"X$	c #C7A782",
"Y$	c #907A5A",
"Z$	c #856D4B",
"`$	c #866D4A",
" %	c #8B714B",
".%	c #91754D",
"+%	c #987A50",
"@%	c #776955",
"#%	c #C1A37F",
"$%	c #D6B284",
"%%	c #CBA66F",
"&%	c #9D8056",
"*%	c #CAA56E",
"=%	c #BA9866",
"-%	c #735E3F",
";%	c #614F35",
">%	c #967B53",
",%	c #D9B278",
"'%	c #BFA17E",
")%	c #716452",
"!%	c #977A50",
"~%	c #836C4B",
"{%	c #8C7656",
"]%	c #C5A680",
"^%	c #B09471",
"/%	c #8D7553",
"(%	c #8A704B",
"_%	c #8F744D",
":%	c #967A4F",
"<%	c #94784F",
"[%	c #6D6050",
"}%	c #D7B281",
"|%	c #D7B282",
"1%	c #C6A782",
"2%	c #665B4C",
"3%	c #93774E",
"4%	c #8A7351",
"5%	c #AD916E",
"6%	c #99805D",
"7%	c #8F744F",
"8%	c #91764E",
"9%	c #987B50",
"0%	c #9F8053",
"a%	c #7D6C55",
"b%	c #C9A983",
"c%	c #D7B17F",
"d%	c #9E7F52",
"e%	c #8D734E",
"f%	c #957C5A",
"g%	c #B29571",
"h%	c #927853",
"i%	c #92764E",
"j%	c #9A815E",
"k%	c #D9AF76",
"l%	c #D8B076",
"m%	c #9A7858",
"n%	c #927154",
"o%	c #D8B077",
"p%	c #D8AF75",
"q%	c #C8A882",
"r%	c #957D5B",
"s%	c #907651",
"t%	c #AF926E",
"u%	c #967D59",
"v%	c #92764F",
"w%	c #96794F",
"x%	c #9C7E52",
"y%	c #9E835C",
"z%	c #D8AE75",
"A%	c #D5AD75",
"B%	c #A9865F",
"C%	c #775949",
"D%	c #5D4646",
"E%	c #5E4747",
"F%	c #816450",
"G%	c #AC8861",
"H%	c #D6AE75",
"I%	c #D5AA72",
"J%	c #D6B17F",
"K%	c #997E58",
"L%	c #9B7D51",
"M%	c #927955",
"N%	c #A38865",
"O%	c #937851",
"P%	c #94774F",
"Q%	c #997C52",
"R%	c #9F825A",
"S%	c #CBAB84",
"T%	c #D7AC74",
"U%	c #745647",
"V%	c #5C4545",
"W%	c #665050",
"X%	c #776565",
"Y%	c #796666",
"Z%	c #695454",
"`%	c #75584B",
" &	c #D3A670",
".&	c #D5B081",
"+&	c #997D55",
"@&	c #91764F",
"#&	c #9F8461",
"$&	c #B79975",
"%&	c #957B55",
"&&	c #957A53",
"*&	c #9A7E57",
"=&	c #B2946F",
"-&	c #D6AF76",
";&	c #563C39",
">&	c #675252",
",&	c #7D6C6C",
"'&	c #8F8080",
")&	c #908282",
"!&	c #827171",
"~&	c #715D5D",
"{&	c #674D48",
"]&	c #D7AF76",
"^&	c #D5A972",
"/&	c #D5B183",
"(&	c #AD906B",
"_&	c #927750",
":&	c #B39672",
"<&	c #AB8F6B",
"[&	c #A88C69",
"}&	c #C2A37D",
"|&	c #DBB277",
"1&	c #7F604D",
"2&	c #796767",
"3&	c #827272",
"4&	c #7C6B6B",
"5&	c #6A5656",
"6&	c #98785B",
"7&	c #BFA07B",
"8&	c #A18663",
"9&	c #A48965",
"0&	c #CEAD86",
"a&	c #DAB077",
"b&	c #DAB176",
"c&	c #DCAF75",
"d&	c #C8A26F",
"e&	c #75594C",
"f&	c #614A4A",
"g&	c #685252",
"h&	c #634D4D",
"i&	c #836654",
"j&	c #D7B076",
"k&	c #D8AE74",
"l&	c #DEA46E",
"m&	c #E67D55",
"n&	c #DBB177",
"o&	c #BB9669",
"p&	c #99785A",
"q&	c #947458",
"r&	c #BD996B",
"s&	c #DBB176",
"t&	c #DDA770",
"u&	c #E58056",
"v&	c #E58862",
"w&	c #E09E6F",
"x&	c #DCB076",
"y&	c #E67C54",
"z&	c #DDAA72",
"A&	c #EB8168",
"B&	c #EF7A69",
"C&	c #E19F70",
"D&	c #E19C6D",
"E&	c #EC7861",
"F&	c #DFA06E",
"G&	c #DF9C69",
"H&	c #E59772",
"I&	c #F77E7F",
"J&	c #EC8972",
"K&	c #DFA572",
"L&	c #E58E68",
"M&	c #F17568",
"N&	c #F07B6E",
"O&	c #DFA977",
"P&	c #E2A074",
"Q&	c #F48D88",
"R&	c #F78A8C",
"S&	c #EF8474",
"T&	c #E68E6A",
"U&	c #DCAD76",
"V&	c #DBB278",
"W&	c #DCAE76",
"X&	c #E2956A",
"Y&	c #E88466",
"Z&	c #F3756F",
"`&	c #F78B8C",
" *	c #EA9D82",
".*	c #DCB077",
"+*	c #DEAB76",
"@*	c #EE917E",
"#*	c #F6A6A6",
"$*	c #F6AFB0",
"%*	c #F58B87",
"&*	c #F2786F",
"**	c #F77F81",
"=*	c #F79B9C",
"-*	c #F6A5A7",
";*	c #F3A29B",
">*	c #E2A67B",
",*	c #EF9384",
"'*	c #F6A1A1",
")*	c #F6B1B2",
"!*	c #F6B6B6",
"~*	c #F29F95",
"{*	c #E79F7E",
"]*	c #DDAB76",
"^*	c #E1A275",
"/*	c #DFA876",
"(*	c #D8AD75",
"                                                    .             +                                                     ",
"                                                    @             # $           %                                       ",
"                                        &         * = -         ; = >         , '                                       ",
"                                        =         ) = = !       ~ = = {       ] ^                                       ",
"                                        = /     ( = = = _     : = = = ]     < = [                                       ",
"                                        = =     = = = = = }   = = = = = |   1 = 2                                       ",
"                                        = = 3 4 = = = = = 5 6 = = = = = ~ 7 = = 8                                       ",
"                                        = = = = = = = = = = = = = = = = = = = = 9                                       ",
"              0 0 0 0 0 0 0 0           = = = = = = = = = = = = = = = = = = = = a         0 0 0 0 0 0 0 0               ",
"          0 b c d e f g h i j 0         = = = = = = = = = = ) ) ) = = = = = = = k       0 l m n o p q r s t 0           ",
"        0 u v w x y z A B C D E b       = = = ) ) F ) ) ) G H I I J ) = = = = = k     b K L M N O P N Q R S T 0         ",
"      0 j U V W X Y Z `  ...+.@.#.0     ) @ $.%.&.*.F ) =.-.;.>.,.'.).-.!.F ) = ~.  0 {.].^./.(._.:.<.[.}.|.1.2.0       ",
"      0 3.4.5.6.7.8.9.0.Z ` _.a.b.c.0   d.e.f.g.h.i.j.) j.k.l.m.n.o.p.J ;.q.r.s.~.t.u.v.w.x.` Z 0.9.y.8.z.A.B.C.0       ",
"    0 T D.E.F.G.G.H.I.z.J.0.:.K.L.M.0 N.O.P.Q.R.S.T.j.) j.k.U.m.V.W.X.Y.o.Z.`. +.+0 ++@+#+:.0.J.z.I.H.G.G.$+%+&+*+0     ",
"    0 =+-+;+>+>+,+'+)+G.I.!+J.~+{+]+^+/+(+_+:+<+[+}+|+1+2+3+4+5+4+6+7+8+9+0+a+b+c+^+c d+e+9.!+I.G.)+'+,+>+>+f+g+h+0     ",
"  0 i+j+k+l+m+m+n+o+p+q+)+r+s+t+u+v+w+x+x+x+x+x+x+x+x+x+x+x+x+x+x+x+x+x+x+x+x+x+x+w+v+y+z+A+H.)+q+p+o+n+m+m+m+B+C+j 0   ",
"  0 D+E+F+G+G+H+I+J+K+L+f+M+N+O+0 P+Q+R+S+T+U+S+R+V+x+x+x+x+x+x+x+x+Q+W+X+Y+Z+`+Q+x+ @0 .@+@@@f+L+K+J+I+H+G+G+#@$@%@0   ",
"  b &@*@=@-@;@-@>@F+G+J+K+C ,@'@)@!@~@{@]@^@/@(@_@R+Q+x+x+x+x+x+x+Q+_@:@<@[@}@|@1@S+Q+2@3@4@5@6@J+G+F+>@-@;@-@=@7@8@b   ",
"0 9@0@a@b@c@d@c@b@e@;@F+f@g@h@i@j@k@^@l@m@{@n@o@p@Q+x+x+x+x+x+x+x+Q+q@r@s@t@u@v@w@o@q@x@y@c z@A@F+;@e@b@c@d@c@b@B@C@*+0 ",
"0 D@E@F@G@H@I@H@F@J@K@L@M@N@v+O@P@Q@R@S@T@U@V@W@Q+x+x+x+x+x+x+x+x+x+Q+X@Y@Z@`@ #.#+#@#`+##0 $#%#&#K@J@F@H@I@H@G@*#=#-#0 ",
"0 ;#>#,#'#)#!#!#'#~#F@{#]#9@^#Q+/#(#R+_#:#<#[#}#|#x+x+x+x+x+x+x+x+x+1#2#3#4#5#6#R+S+`+Q+x+7#*+8#9#F@~#'#!#!#)#'#~#0#a#0 ",
"0 b#c#d#e#f#g#g#h#i#'#0#j#v+w+x+k#x+l#m#n#o#p#q#r#s#x+x+x+x+x+x+x+x+t#u#v#w#x#y#|#x+x+x+x+w+v+z#A#'#i#h#g#g#f#e#B#C#s 0 ",
"  D#E#F#G#H#I#I#J#K#L#M#N#7#x+x+x+x+O#P#Q#R#S#T#U#V#x+x+x+x+x+x+x+x+W#X#Y#Z#`#P# $x+x+x+x+x+.$+$@$#$K#J#I#I#H#G#$$%$l   ",
"  0 &$*$=$-$;$>$;$,$'$)$!$ @x+x+x+s#~${$]$^$/$($_$x+x+x+x+x+x+x+x+x+:$<$[$}$|$1$2$3$x+x+x+x+4$'@5$6$,$;$>$;$-$=$7$8$0   ",
"  0 9$0$a$b$c$d$d$e$f$g$v+h$x+x+x+x+i$j$k$l$m$n$o$x+x+x+x+x+x+x+x+x+p$q$r$s$t$u$v$w$x+x+x+x+h$0 x$y$e$d$d$c$b$>$z$A$0   ",
"  0 '@B$C$D$E$F$G$G$H$I$y@x+x+x+x+x+J$K$L$M$N$O$x+x+x+x+x+x+x+x+x+x+x+P$Q$R$s$S$T$x+x+x+x+x+x+y@;#U$G$G$F$E$d$V$W$'@0   ",
"    0 X$Y$Z$`$ %.%+%@%#%$%x+x+x+x+x+x+%%O$&%*%x+x+x+x+x+x+x+x+x+x+x+x+x+=%-%;%>%,%x+x+x+x+x+x+$%'%)%!%.% %`$~%{%]%0     ",
"      0 ^%/%(%_%:%<%[%*+}%x+x+x+x+x+x+x+x+x+x+x+x+x+x+x+x+x+x+x+x+x+x+x+x+x+x+x+x+x+x+x+x+x+x+|%1%2%3%:%_%(%4%5%0       ",
"      0 D#6%7%8%9%0%a%b%4$x+x+x+x+x+x+x+x+x+x+x+x+x+x+x+x+x+x+x+x+x+x+x+x+x+x+x+x+x+x+x+x+Q+V+c%X$C#d%9%8%e%f%j 0       ",
"        0 g%h%i%+%0%j%9@4$x+V+k%Q+x+x+x+x+x+x+x+x+x+x+l%m%n%o%x+x+x+x+x+x+x+x+x+x+x+x+x+Q+k%p%c%q%r%d%+%i%s%t%0         ",
"        0 u.u%v%w%x%y%u.4$x+p%q@z%Q+x+x+x+x+x+x+x+A%B%C%D%E%F%G%H%x+x+x+x+x+x+x+x+x+x+Q+z%I%_@J%q%K%L%w%8%M%9@0         ",
"          0 N%O%P%Q%R%S%}%Q+z%@#T%R+x+x+x+x+x+x+x+U%V%W%X%Y%Z%E%`%Q+x+x+x+x+x+x+x+x+x+R+I% &I%.&b%+&9%3%@&#&0           ",
"          0 $&%&&&*&=&b $%V+z%_@T%R+Q+x+x+x+x+x+-&;&>&,&'&)&!&~&{&]&x+x+x+x+x+x+x+x+V+S+^&S@T%/&b (&&&_&s%:&0           ",
"          0 D#<&[&}&b 0   V+z%T%p@k%Q+|&x+x+x+x+x+1&W%2&!&3&4&5&6&x+x+x+x+x+x+x+x+Q+R+p@^&@#p%  0 b 7&8&9&0&0           ",
"            0 0 0 0       a&p%p@p@p%b&|&c&x+x+x+x+d&e&f&g&g&h&i&j&x+x+x+x+x+x+x+x+Q+R+T%^&_@R+      0 0 0 0             ",
"                          R+p%p@p@k&V+l&m&n&x+x+x+x+x+o&p&q&r&x+x+x+x+x+x+s&t&x+x+V+R+p@^&p@a&                          ",
"                            R+p@T%z%b&u&v&w&x+x+x+x+x+x+x+x+x+x+x+x+x+x+x+x&y&z&x+V+R+_@@#`+                            ",
"                            V+k%z%k%Q+n&x+A&B&C&x+x+x+x+x+x+x+x+x+x+x+x+D&E&F&G&x+Q+R+T%T%!@                            ",
"                              x+Q+V+Q+x+x+x+H&I&J&K&x+x+x+x+x+x+x+n&L&M&N&O&x+x+x+x+V+p%p%                              ",
"                                x+x+x+x+x+x+x+P&Q&R&S&T&U&V&W&X&Y&Z&`& *.*x+x+x+x+x+V+R+                                ",
"                                  x+x+x+x+x+x+x++*@*#*$*%*&***=*-*;*>*x+x+x+x+x+x+x+Q+V+                                ",
"                                  x+x+x+x+x+x+x+x+x+P&,*'*)*!*~*{*.*x+x+x+x+x+x+x+x+x+                                  ",
"                                    x+x+x+x+x+x+x+x+x+x+]*^*/*x+x+x+x+x+x+x+x+x+x+x+                                    ",
"                                      x+x+x+x+x+x+x+x+x+x+x+x+x+x+x+x+x+x+x+x+x+x+                                      ",
"                                        x+x+x+Q+Q+x+x+x+Q+Q+Q+Q+Q+Q+x+x+x+x+x+x+                                        ",
"                                            Q+Q+Q+Q+V+V+k%z%(*(*(*z%V+x+x+x+                                            ",
"                                              Q+Q+Q+V+a&p%z%(*(*z%p%V+x+x+                                              ",
"                                                    x+Q+Q+Q+Q+Q+Q+Q+                                                    "};
