/* XPM */
static char * ende1_xpm[] = {
"55 37 767 2",
"  	c None",
". 	c #D1B089",
"+ 	c #CFAF88",
"@ 	c #CEAE88",
"# 	c #D1B08A",
"$ 	c #CFAE88",
"% 	c #CEAD88",
"& 	c #CEAE87",
"* 	c #D0B089",
"= 	c #C5A782",
"- 	c #B99C7B",
"; 	c #AC9273",
"> 	c #A38B6D",
", 	c #AD9373",
"' 	c #BDA07C",
") 	c #CBAB86",
"! 	c #D2B18A",
"~ 	c #CBAB85",
"{ 	c #BB9E7B",
"] 	c #AA9071",
"^ 	c #9F886A",
"/ 	c #9F886B",
"( 	c #A88F70",
"_ 	c #B69A79",
": 	c #C4A681",
"< 	c #CDAD87",
"[ 	c #CAAB86",
"} 	c #B39979",
"| 	c #917D65",
"1 	c #736554",
"2 	c #5F5547",
"3 	c #544C40",
"4 	c #534C40",
"5 	c #796A55",
"6 	c #A0896B",
"7 	c #C6A681",
"8 	c #947254",
"9 	c #906F52",
"0 	c #8F6E51",
"a 	c #C3A580",
"b 	c #9D8668",
"c 	c #756652",
"d 	c #5A5143",
"e 	c #4E473D",
"f 	c #4F483E",
"g 	c #595144",
"h 	c #6D6151",
"i 	c #8C7962",
"j 	c #B09676",
"k 	c #C9AA85",
"l 	c #7C6D5A",
"m 	c #564E43",
"n 	c #443F38",
"o 	c #3D3933",
"p 	c #3A3631",
"q 	c #383531",
"r 	c #393632",
"s 	c #413D36",
"t 	c #5C5245",
"u 	c #998266",
"v 	c #917053",
"w 	c #9B7958",
"x 	c #A17E5B",
"y 	c #A6835D",
"z 	c #A8845E",
"A 	c #AA865F",
"B 	c #AB8860",
"C 	c #A5815C",
"D 	c #9E7C59",
"E 	c #A07D5A",
"F 	c #C3A47F",
"G 	c #937F63",
"H 	c #574E42",
"I 	c #3E3A35",
"J 	c #373531",
"K 	c #373430",
"L 	c #3B3833",
"M 	c #423D37",
"N 	c #524B41",
"O 	c #766856",
"P 	c #B09677",
"Q 	c #C1A480",
"R 	c #8B7962",
"S 	c #544D42",
"T 	c #433D34",
"U 	c #3E3932",
"V 	c #3D3831",
"W 	c #3B3731",
"X 	c #3A3630",
"Y 	c #383430",
"Z 	c #363430",
"` 	c #3A3732",
" .	c #625749",
"..	c #A48B6D",
"+.	c #CCAC86",
"@.	c #AC8760",
"#.	c #B38E63",
"$.	c #C09A6A",
"%.	c #C8A26E",
"&.	c #CCA671",
"*.	c #CDA670",
"=.	c #CFA972",
"-.	c #D1AA73",
";.	c #CFA872",
">.	c #C7A16E",
",.	c #BC9768",
"'.	c #B59064",
").	c #B18C62",
"!.	c #5C5346",
"~.	c #383532",
"{.	c #36332F",
"].	c #393630",
"^.	c #3C3831",
"/.	c #413C34",
"(.	c #504940",
"_.	c #857560",
":.	c #BEA27F",
"<.	c #CCAC87",
"[.	c #A89073",
"}.	c #685D4F",
"|.	c #484137",
"1.	c #433D33",
"2.	c #433C33",
"3.	c #413C33",
"4.	c #403B32",
"5.	c #3E3A32",
"6.	c #383530",
"7.	c #4D463E",
"8.	c #C6A782",
"9.	c #D1AF84",
"0.	c #BE996B",
"a.	c #BA9567",
"b.	c #C59F6C",
"c.	c #CFA771",
"d.	c #D5AD75",
"e.	c #D9B177",
"f.	c #DAB277",
"g.	c #DAB278",
"h.	c #DBB378",
"i.	c #D8B076",
"j.	c #D4AC74",
"k.	c #CCA570",
"l.	c #B69165",
"m.	c #BB9769",
"n.	c #D0AE84",
"o.	c #C4A580",
"p.	c #85745E",
"q.	c #47433C",
"r.	c #373530",
"s.	c #464036",
"t.	c #63594C",
"u.	c #A48D71",
"v.	c #C2A481",
"w.	c #8C7A63",
"x.	c #594F43",
"y.	c #494136",
"z.	c #484035",
"A.	c #474035",
"B.	c #463F34",
"C.	c #453E34",
"D.	c #403B33",
"E.	c #413C35",
"F.	c #A18A6E",
"G.	c #CDAC83",
"H.	c #D5B17F",
"I.	c #D2AA73",
"J.	c #D6AF76",
"K.	c #D4B07E",
"L.	c #CBAB82",
"M.	c #9C866B",
"N.	c #5D554A",
"O.	c #3F3B35",
"P.	c #484135",
"Q.	c #564D41",
"R.	c #887761",
"S.	c #C0A380",
"T.	c #B29778",
"U.	c #766855",
"V.	c #544A3C",
"W.	c #4D4437",
"X.	c #4C4337",
"Y.	c #4B4236",
"Z.	c #473F35",
"`.	c #453E35",
" +	c #564F45",
".+	c #937F68",
"++	c #C4A67F",
"@+	c #D6B181",
"#+	c #D9B279",
"$+	c #D9B176",
"%+	c #D9B27A",
"&+	c #C2A47E",
"*+	c #8D7B65",
"=+	c #524C43",
"-+	c #443E34",
";+	c #52493B",
">+	c #726453",
",+	c #AF9576",
"'+	c #9C876B",
")+	c #675B49",
"!+	c #54493A",
"~+	c #524838",
"{+	c #524738",
"]+	c #504638",
"^+	c #4E4537",
"/+	c #4C4336",
"(+	c #4A4236",
"_+	c #534B40",
":+	c #7B6D5C",
"<+	c #C1A380",
"[+	c #D4B182",
"}+	c #D8B179",
"|+	c #D6AD74",
"1+	c #D4A972",
"2+	c #D1A670",
"3+	c #CFA56F",
"4+	c #D2A871",
"5+	c #D7AE74",
"6+	c #DAB177",
"7+	c #D8AF75",
"8+	c #D2A770",
"9+	c #CEA46E",
"0+	c #D0A56F",
"a+	c #D2A870",
"b+	c #D5AB72",
"c+	c #D8B075",
"d+	c #BFA27F",
"e+	c #766959",
"f+	c #51493E",
"g+	c #4B4336",
"h+	c #53493A",
"i+	c #635847",
"j+	c #998369",
"k+	c #C9A984",
"l+	c #BDA07E",
"m+	c #85735C",
"n+	c #5F5341",
"o+	c #584C3A",
"p+	c #574B3A",
"q+	c #564A3A",
"r+	c #534939",
"s+	c #514738",
"t+	c #554B3D",
"u+	c #706453",
"v+	c #B19778",
"w+	c #D3B084",
"x+	c #D6AF78",
"y+	c #D2A670",
"z+	c #CEA06D",
"A+	c #CE9F6C",
"B+	c #CC9E6B",
"C+	c #CA9D6A",
"D+	c #CFA26D",
"E+	c #D6AB73",
"F+	c #D6AC73",
"G+	c #D0A26D",
"H+	c #CB9D6A",
"I+	c #CA9C6A",
"J+	c #C99B69",
"K+	c #D1A56F",
"L+	c #D6AC74",
"M+	c #D8B17A",
"N+	c #D3B185",
"O+	c #AE9476",
"P+	c #6C6050",
"Q+	c #534A3D",
"R+	c #5D5240",
"S+	c #806F59",
"T+	c #BB9E7C",
"U+	c #CFAF89",
"V+	c #AF9474",
"W+	c #746550",
"X+	c #5E513F",
"Y+	c #5D4F3C",
"Z+	c #5B4E3B",
"`+	c #574C3B",
" @	c #665A49",
".@	c #99846A",
"+@	c #D5AF7B",
"@@	c #CDA06C",
"#@	c #D3A874",
"$@	c #D8B180",
"%@	c #D9B384",
"&@	c #D8B07C",
"*@	c #D9B077",
"=@	c #D9B076",
"-@	c #D7AC75",
";@	c #D6AD79",
">@	c #D5AB78",
",@	c #D2A671",
"'@	c #CEA26D",
")@	c #CFA26E",
"!@	c #D3A771",
"~@	c #D8AE75",
"{@	c #D8B27D",
"]@	c #CBAB84",
"^@	c #968167",
"/@	c #635747",
"(@	c #574B3B",
"_@	c #5E513E",
":@	c #70614D",
"<@	c #AB9272",
"[@	c #CFAE89",
"}@	c #A88E6F",
"|@	c #70604B",
"1@	c #62543F",
"2@	c #62533E",
"3@	c #62543E",
"4@	c #61533E",
"5@	c #5F523D",
"6@	c #5D503C",
"7@	c #605441",
"8@	c #806F58",
"9@	c #B99D7B",
"0@	c #D3B183",
"a@	c #D6AE75",
"b@	c #D1A871",
"c@	c #D3A971",
"d@	c #D9B37F",
"e@	c #E6CDA8",
"f@	c #F0E1CB",
"g@	c #F2E5D2",
"h@	c #ECD8BB",
"i@	c #E0BF8D",
"j@	c #DBB479",
"k@	c #DCB67E",
"l@	c #E4C79D",
"m@	c #ECD9BD",
"n@	c #ECD8BC",
"o@	c #E5CAA3",
"p@	c #DAB581",
"q@	c #D6AB74",
"r@	c #D9AF76",
"s@	c #D3B184",
"t@	c #B79B7A",
"u@	c #7C6C57",
"v@	c #6C5D49",
"w@	c #A38A6C",
"x@	c #AE9474",
"y@	c #78674F",
"z@	c #675841",
"A@	c #67563F",
"B@	c #685840",
"C@	c #65563F",
"D@	c #63543F",
"E@	c #6F604B",
"F@	c #9E876B",
"G@	c #CBAB83",
"H@	c #D9B37C",
"I@	c #DCB780",
"J@	c #E9D3B1",
"K@	c #F2EDEC",
"L@	c #E7E8FA",
"M@	c #E8E8F9",
"N@	c #F2EEF2",
"O@	c #E9D3B4",
"P@	c #DDB880",
"Q@	c #DBB47A",
"R@	c #E3C497",
"S@	c #F3EADE",
"T@	c #F5F5F7",
"U@	c #F5F4F8",
"V@	c #F5F1EE",
"W@	c #EBD6B9",
"X@	c #DDB983",
"Y@	c #D9B37D",
"Z@	c #CAAA84",
"`@	c #9B8469",
" #	c #6C5E49",
".#	c #665741",
"+#	c #73634C",
"@#	c #AB9171",
"##	c #BA9E7B",
"$#	c #867257",
"%#	c #6E5D44",
"&#	c #6C5B42",
"*#	c #6E5C42",
"=#	c #6F5D42",
"-#	c #6C5A41",
";#	c #6B5B43",
">#	c #827057",
",#	c #D4B082",
"'#	c #DBB379",
")#	c #E1C194",
"!#	c #E0D7DD",
"~#	c #989FF3",
"{#	c #4553E9",
"]#	c #434FE7",
"^#	c #777FED",
"/#	c #C1B4C2",
"(#	c #DBB786",
"_#	c #DCB67D",
":#	c #DAC3AA",
"<#	c #B2B4EF",
"[#	c #737CEE",
"}#	c #6772EF",
"|#	c #9DA4F6",
"1#	c #DEDBE9",
"2#	c #E3C79F",
"3#	c #DCB57B",
"4#	c #D3B083",
"5#	c #B39878",
"6#	c #7E6D55",
"7#	c #6A5A43",
"8#	c #6C5A42",
"9#	c #6D5C44",
"0#	c #816F54",
"a#	c #B89C79",
"b#	c #978062",
"c#	c #776449",
"d#	c #735F44",
"e#	c #746144",
"f#	c #756244",
"g#	c #756144",
"h#	c #736044",
"i#	c #756349",
"j#	c #957F63",
"k#	c #C6A781",
"l#	c #D7B27E",
"m#	c #DCB57C",
"n#	c #D7BDA2",
"o#	c #8F91DC",
"p#	c #232FAF",
"q#	c #0B136B",
"r#	c #0F166F",
"s#	c #1F269B",
"t#	c #8375A0",
"u#	c #D1AD80",
"v#	c #DAB37C",
"w#	c #AB969E",
"x#	c #3840C0",
"y#	c #141E9C",
"z#	c #0F1A94",
"A#	c #1E2AB3",
"B#	c #8187E3",
"C#	c #D5C1B6",
"D#	c #DDB780",
"E#	c #917C61",
"F#	c #726248",
"G#	c #725F43",
"H#	c #746248",
"I#	c #937D60",
"J#	c #AA8F6E",
"K#	c #846E52",
"L#	c #796447",
"M#	c #7A6546",
"N#	c #7D6747",
"O#	c #7E6747",
"P#	c #7C6646",
"Q#	c #7F6B50",
"R#	c #A48B6C",
"S#	c #CEAC81",
"T#	c #C5A997",
"U#	c #5A5AB3",
"V#	c #0D124B",
"W#	c #040303",
"X#	c #0E0B09",
"Y#	c #3B3236",
"Z#	c #A1866C",
"`#	c #D7B078",
" $	c #DAB279",
".$	c #B5977C",
"+$	c #473F5A",
"@$	c #0E0D15",
"#$	c #05050B",
"$$	c #060A39",
"%$	c #393FAE",
"&$	c #B4A1AC",
"*$	c #DBB57F",
"=$	c #CCAB82",
"-$	c #A0886A",
";$	c #7C6A4F",
">$	c #786446",
",$	c #806C4F",
"'$	c #A68D6C",
")$	c #CAAB85",
"!$	c #BFA17D",
"~$	c #9B8262",
"{$	c #836C4D",
"]$	c #806948",
"^$	c #846C49",
"/$	c #876E4A",
"($	c #896F4B",
"_$	c #877257",
":$	c #D1AF81",
"<$	c #DAB37A",
"[$	c #CDAA83",
"}$	c #837280",
"|$	c #382F30",
"1$	c #2D2519",
"2$	c #4B3D29",
"3$	c #8D734D",
"4$	c #CAA56E",
"5$	c #D0AA72",
"6$	c #937851",
"7$	c #433725",
"8$	c #211B12",
"9$	c #1D191B",
"0$	c #544C78",
"a$	c #BA9D8D",
"b$	c #D1AE81",
"c$	c #AB9172",
"d$	c #847055",
"e$	c #886F4A",
"f$	c #816C4C",
"g$	c #977F5F",
"h$	c #BD9F7B",
"i$	c #CDAD86",
"j$	c #B59874",
"k$	c #927958",
"l$	c #866E4C",
"m$	c #89704B",
"n$	c #8F744D",
"o$	c #90754E",
"p$	c #867358",
"q$	c #B49978",
"r$	c #D4B180",
"s$	c #D9B179",
"t$	c #C7A373",
"u$	c #A5875C",
"v$	c #9C8056",
"w$	c #B29262",
"x$	c #CEA870",
"y$	c #CDA870",
"z$	c #A98A5C",
"A$	c #826B48",
"B$	c #AB8D6A",
"C$	c #D3AD79",
"D$	c #D4B080",
"E$	c #B19676",
"F$	c #826F56",
"G$	c #866E4B",
"H$	c #8F7756",
"I$	c #B29673",
"J$	c #C8A883",
"K$	c #A98C6A",
"L$	c #8E7451",
"M$	c #8E734D",
"N$	c #94784F",
"O$	c #93774F",
"P$	c #897459",
"Q$	c #B99C79",
"R$	c #DAB378",
"S$	c #D8B176",
"T$	c #D7B076",
"U$	c #D3AC73",
"V$	c #D2AC73",
"W$	c #D5B07F",
"X$	c #B69A78",
"Y$	c #847056",
"Z$	c #92764E",
"`$	c #8C734F",
" %	c #A58B67",
".%	c #C6A882",
"+%	c #BD9E7A",
"@%	c #997E5A",
"#%	c #91764F",
"$%	c #96794F",
"%%	c #9A7D51",
"&%	c #967E5D",
"*%	c #BD9F7A",
"=%	c #D6B27F",
"-%	c #D0A973",
";%	c #BE996A",
">%	c #CDA671",
",%	c #D5B07E",
"'%	c #BA9D79",
")%	c #917A5A",
"!%	c #9A7C51",
"~%	c #90764E",
"{%	c #967D58",
"]%	c #BB9E78",
"^%	c #C8A882",
"/%	c #A98C67",
"(%	c #947952",
"_%	c #9B7D52",
":%	c #A0855F",
"<%	c #C1A27B",
"[%	c #D0A972",
"}%	c #BC9769",
"|%	c #9B7A5C",
"1%	c #7B5E4F",
"2%	c #94755A",
"3%	c #BF9A6B",
"4%	c #CEA772",
"5%	c #D7AD75",
"6%	c #D4AF7D",
"7%	c #BFA079",
"8%	c #9D825C",
"9%	c #9B7D51",
"0%	c #95794F",
"a%	c #917751",
"b%	c #A68A65",
"c%	c #C7A781",
"d%	c #B69873",
"e%	c #997D57",
"f%	c #997C52",
"g%	c #A3865E",
"h%	c #C2A37B",
"i%	c #D6B280",
"j%	c #DAB178",
"k%	c #D7AD74",
"l%	c #9D7C5C",
"m%	c #7D6050",
"n%	c #715953",
"o%	c #6D5857",
"p%	c #735C57",
"q%	c #806454",
"r%	c #98785C",
"s%	c #C8A26F",
"t%	c #D5A972",
"u%	c #D5AA73",
"v%	c #D4AE7D",
"w%	c #C0A079",
"x%	c #9F825A",
"y%	c #987B50",
"z%	c #93784F",
"A%	c #967B55",
"B%	c #B49671",
"C%	c #C0A17C",
"D%	c #A18560",
"E%	c #947A52",
"F%	c #987C54",
"G%	c #AA8D66",
"H%	c #C8A881",
"I%	c #D6B281",
"J%	c #D7AC74",
"K%	c #DBB278",
"L%	c #BD9969",
"M%	c #765A4C",
"N%	c #6A5352",
"O%	c #7B6868",
"P%	c #867676",
"Q%	c #827171",
"R%	c #725D5B",
"S%	c #765C52",
"T%	c #B59167",
"U%	c #D4A871",
"V%	c #C7A67F",
"W%	c #A58862",
"X%	c #957952",
"Y%	c #927750",
"Z%	c #9D825D",
"`%	c #BEA07A",
" &	c #A48864",
".&	c #B0936E",
"+&	c #D7B17F",
"@&	c #D8AD75",
"#&	c #DBB277",
"$&	c #C7A26E",
"%&	c #7B5F4F",
"&&	c #6C5756",
"*&	c #7D6C6C",
"=&	c #857575",
"-&	c #837373",
";&	c #766260",
">&	c #846959",
",&	c #C29D6E",
"'&	c #D5AA72",
")&	c #D7B07E",
"!&	c #C4A57F",
"~&	c #AC8F6B",
"{&	c #9E835E",
"]&	c #AF936E",
"^&	c #C9A983",
"/&	c #D0AF89",
"(&	c #DAB176",
"_&	c #DCAF75",
":&	c #DCAE75",
"<&	c #A98762",
"[&	c #7C6254",
"}&	c #6E5855",
"|&	c #6F5958",
"1&	c #7E6457",
"2&	c #AF8D66",
"3&	c #D7AF76",
"4&	c #D6AA73",
"5&	c #CCAC85",
"6&	c #D9AF75",
"7&	c #DCAA72",
"8&	c #E09967",
"9&	c #DEA36E",
"0&	c #D6AF75",
"a&	c #BF9B6B",
"b&	c #A48360",
"c&	c #95765A",
"d&	c #A08060",
"e&	c #BD996C",
"f&	c #DCAC73",
"g&	c #DDAA72",
"h&	c #DBB177",
"i&	c #DAB077",
"j&	c #D7AB74",
"k&	c #D9AE75",
"l&	c #DDA26D",
"m&	c #E38B60",
"n&	c #E3946A",
"o&	c #DFA674",
"p&	c #DCB077",
"q&	c #D8B177",
"r&	c #DCAF76",
"s&	c #DFA06D",
"t&	c #E19867",
"u&	c #DBAF76",
"v&	c #DEA973",
"w&	c #E4986F",
"x&	c #E98C6D",
"y&	c #E59973",
"z&	c #DFA977",
"A&	c #DCB177",
"B&	c #DDAD76",
"C&	c #E0A473",
"D&	c #E3976F",
"E&	c #E4936B",
"F&	c #E19A6A",
"G&	c #DCAF77",
"H&	c #E49F76",
"I&	c #EC8D77",
"J&	c #EB9179",
"K&	c #E59E79",
"L&	c #E1A778",
"M&	c #DEAC77",
"N&	c #DCAE76",
"O&	c #DDAC76",
"P&	c #DFA976",
"Q&	c #E2A175",
"R&	c #E79574",
"S&	c #EC8770",
"T&	c #E89071",
"U&	c #DFA776",
"V&	c #E2A579",
"W&	c #EB967E",
"X&	c #EF9384",
"Y&	c #EE9885",
"Z&	c #E99D82",
"`&	c #E5A17B",
" *	c #E59D79",
".*	c #E89B7C",
"+*	c #EB967F",
"@*	c #EF9180",
"#*	c #EE917F",
"$*	c #E6A07D",
"%*	c #DEAE79",
"&*	c #DCB278",
"**	c #E0AB79",
"=*	c #E7A382",
"-*	c #EE9E8D",
";*	c #F19D94",
">*	c #F2998F",
",*	c #F29C94",
"'*	c #F29D95",
")*	c #F09D8F",
"!*	c #EAA288",
"~*	c #E2AA7F",
"{*	c #DDB079",
"]*	c #DDAF78",
"^*	c #E1AA7C",
"/*	c #E6A684",
"(*	c #EBA38A",
"_*	c #EBA78F",
":*	c #E8AA8A",
"<*	c #E3AC82",
"[*	c #DEAF7B",
"}*	c #DCB178",
"|*	c #DEAF79",
"1*	c #DEAF7A",
"2*	c #DCB179",
"              . + @ @ + #                                                           . $ % & + *               ",
"          @ = - ; > > , ' ) !                                                   # ~ { ] ^ / ( _ : <           ",
"        [ } | 1 2 3 4 2 5 6 7 .                     8 9 0                     . a b c d e f g h i j k         ",
"      + } l m n o p q r s t u : !           v w x y z A B A C D E           ! F G H I J K q L M N O P @       ",
"      Q R S T U V W X Y Z `  ...+.      E @.#.$.%.&.*.=.-.;.>.,.'.).y       ~ ^ !.~.{.K ].W ^.U /.(._.:.      ",
"    <.[.}.|.1.2.3.4.5.^.X 6.7.i 8.9.0.a.b.c.d.e.f.g.g.g.h.h.f.i.j.k.$.l.m.n.o.p.q.r.X ^.5.4.3.2.1.s.t.u.)     ",
"    v.w.x.y.z.A.B.C.2.D.U E.t.F.G.H.-.I.i.f.h.h.h.h.h.h.h.h.h.h.h.f.J.-.;.K.L.M.N.O.U D.2.C.B.A.z.P.Q.R.S.    ",
"  $ T.U.V.W.W.X.Y.y.Z.C.`. +.+++@+#+e.i.$+f.f.f.h.h.h.h.h.h.h.h.$+$+f.f.e.%+@+&+*+=+-+C.Z.y.Y.X.W.W.;+>+,+@   ",
"  k '+)+!+~+{+{+]+^+/+(+_+:+<+[+}+|+1+2+3+4+5+6+h.h.h.h.h.h.h.7+8+9+0+a+b+c+%+[+d+e+f+(+g+^+]+{+{+~+h+i+j+k+  ",
"# l+m+n+o+o+o+p+q+r+s+t+u+v+w+x+y+z+A+B+C+D+E+$+h.h.h.h.h.h.f.F+G+H+I+J+C+K+L+M+N+O+P+Q+s+r+q+p+o+o+o+R+S+T+# ",
"U+V+W+X+Y+Y+Y+Y+Z+o+`+ @.@~ +@8+@@z+#@$@%@&@*@f.h.h.h.h.h.h.h.=@-@;@>@,@'@)@!@~@{@]@^@/@(@o+Z+Y+Y+Y+Y+_@:@<@[@",
"& }@|@1@2@3@3@4@5@6@7@8@9@0@a@b@c@d@e@f@g@h@i@j@h.h.h.h.h.h.h.k@l@m@n@o@p@q@E+r@h.s@t@u@n+6@5@4@3@3@2@4@v@w@< ",
"+ x@y@z@A@B@B@B@C@D@E@F@G@H@f.i.I@J@K@L@M@N@O@P@h.h.h.h.h.h.Q@R@S@T@U@V@W@X@f.h.h.Y@Z@`@ #D@C@B@B@B@A@.#+#@#@ ",
"# ##$#%#&#*#=#*#-#;#>#_ ,#'#h.Q@)#!#~#{#]#^#/#(#h.h.h.h.h.h._#:#<#[#}#|#1#2#3#h.h.'#4#5#6#7#-#*#=#*#8#9#0#a#. ",
"  : b#c#d#e#f#g#h#i#j#k#l#h.h.m#n#o#p#q#r#s#t#u#h.h.h.h.h.h.v#w#x#y#z#A#B#C#D#h.h.h.l#o.E#F#h#g#f#e#G#H#I#a   ",
"  +.J#K#L#M#N#O#P#Q#R#S#H@h.h.Q@T#U#V#W#X#Y#Z#`#h.h.h.h.h.h. $.$+$@$#$$$%$&$*$h.h.h.H@=$-$;$P#O#N#M#>$,$'$)$  ",
"  * !$~${$]$^$/$($_$x@:$<$h.h.'#[$}$|$1$2$3$4$g.h.h.h.h.h.h.h.5$6$7$8$9$0$a$<$h.h.h.<$b$c$d$e$/$^$]$f$g$h$U+  ",
"    i$j$k$l$m$n$o$p$q$r$'#h.h.h.s$t$u$v$w$x$f.h.h.h.h.h.h.h.h.f.y$z$/$A$B$C$h.h.h.h.'#D$E$F$n$n$m$G$H$I$+.    ",
"      J$K$L$M$N$O$P$Q$H.'#h.h.h.h.R$S$T$e.h.h.h.h.h.g.h.h.h.h.h.h.i.U$V$i.h.h.h.h.h.g.W$X$Y$Z$N$M$`$ %.%      ",
"      . +%@%#%$%%%&%*%=%'#f.6+h.h.h.h.h.h.h.h.h.g.-%;%>%h.h.h.h.h.h.h.h.h.h.h.h.h.f.*@,%'%)%!%$%~%{%]%*       ",
"        ^%/%(%$%_%:%<%=%g.r@~@6+h.h.h.h.h.h.h.[%}%|%1%2%3%4%g.h.h.h.h.h.h.h.h.h.f.5+5%6%7%8%9%0%a%b%c%        ",
"        i$d%e%N$f%g%h%i%j%k%F+r@f.h.h.h.h.h.-.l%m%n%o%p%q%r%s%h.h.h.h.h.h.h.h.f.~@t%u%v%w%x%y%z%A%B%+.        ",
"          C%D%E%F%G%H%I%e.J%E+~@6+K%h.h.h.h.L%M%N%O%P%Q%R%S%T%f.h.h.h.h.h.h.K%=@E+U%q@W$V%W%X%Y%Z%`%          ",
"          Z@B% &.&k#. +&=@@&F+k%=@#&h.h.h.h.$&%&&&*&=&-&;&>&,&h.h.h.h.h.h.h.f.7+'&t%@&)&. !&~&{&]&^&          ",
"          ! $ < /&!     =@~@J%k%=@(&_&:&h.h.i.<&[&}&o%|&1&2&3&h.h.h.h.h.h.K%6+~@'&4&7+    ! + 5&& !           ",
"                        =@~@J%k%6&7&8&9&K%h.h.0&a&b&c&d&e&3&h.h.h.K%f&g&h&K%i&~@'&j&=@                        ",
"                          7+J%k%k&l&m&n&o&p&h.h.h.q&j.T$h.h.h.h.h.r&s&t&g&K%$+k%E+~@                          ",
"                          6+7+r@(&u&v&w&x&y&z&p&K%h.h.h.h.h.A&B&C&D&E&F&g&h.f.~@k%=@                          ",
"                            f.f.f.h.h.G&H&I&J&K&L&M&G&N&O&P&Q&R&S&T&U&K%h.h.f.=@7+                            ",
"                            h.h.h.h.h.h.p&V&W&X&Y&Z&`& *.*+*@*#*$*%*h.h.h.h.h.6+                              ",
"                              h.h.h.h.h.h.&***=*-*;*>*,*'*)*!*~*{*h.h.h.h.h.h.f.                              ",
"                                h.h.h.h.h.h.K%]*^*/*(*_*:*<*[*&*h.h.h.h.h.h.h.                                ",
"                                  h.h.h.h.h.h.h.K%}*|*1*2*&*h.h.h.h.h.h.h.h.                                  ",
"                                    h.h.h.h.h.h.h.K%f.f.f.f.f.h.h.h.h.h.h.                                    ",
"                                      h.h.f.f.f.f.6+=@7+7+7+=@6+h.h.h.h.                                      ",
"                                          f.f.f.6+=@7+~@~@~@7+$+f.h.                                          ",
"                                                f.f.f.6+6+6+6+                                                "};
