/* XPM */
static char * exit_xpm[] = {
"17 17 4 1",
" 	c None",
".	c #000000",
"+	c #FFFFFF",
"@	c #8B0000",
"                 ",
"       ......... ",
"       .++++++.. ",
"       .++++++.. ",
"     ...++++++.. ",
"     .@.++++++.. ",
"......@@.++..+.. ",
".@@@@@@@@.+..+.. ",
".@@@@@@@@.++++.. ",
"......@@.+++++.. ",
"     .@.++++++.. ",
"     ...++++++.. ",
"       .++++.... ",
"       .++...... ",
"       ......... ",
"                 ",
"                 "};
