/* XPM */
static char * feuer1_xpm[] = {
"50 50 475 2",
"  	c None",
". 	c #D26907",
"+ 	c #DC6807",
"@ 	c #DA6B07",
"# 	c #D96407",
"$ 	c #D96607",
"% 	c #F58F01",
"& 	c #D46709",
"* 	c #ED8303",
"= 	c #DE6309",
"- 	c #E67D04",
"; 	c #FF8500",
"> 	c #E8630B",
", 	c #D46A07",
"' 	c #FF9800",
") 	c #ED6C07",
"! 	c #D56406",
"~ 	c #F59501",
"{ 	c #FF9100",
"] 	c #FC9701",
"^ 	c #DC6907",
"/ 	c #FF7C00",
"( 	c #F97101",
"_ 	c #E07306",
": 	c #FF7000",
"< 	c #FFA400",
"[ 	c #FDD70D",
"} 	c #E87905",
"| 	c #FF7800",
"1 	c #FF6F00",
"2 	c #E88606",
"3 	c #F79D01",
"4 	c #FF7D00",
"5 	c #FF5B00",
"6 	c #FF5F00",
"7 	c #F98F05",
"8 	c #FF9D00",
"9 	c #FF6200",
"0 	c #DE610B",
"a 	c #FECF06",
"b 	c #FFF200",
"c 	c #FFBC00",
"d 	c #FF6800",
"e 	c #FF4800",
"f 	c #FF6400",
"g 	c #FDC90A",
"h 	c #FF8200",
"i 	c #FF5000",
"j 	c #FF5600",
"k 	c #E45E0D",
"l 	c #FBD907",
"m 	c #FFF101",
"n 	c #FFE700",
"o 	c #FFD500",
"p 	c #FFB500",
"q 	c #FF6A00",
"r 	c #FF5C00",
"s 	c #F3860C",
"t 	c #DE7505",
"u 	c #FF4200",
"v 	c #FF4B00",
"w 	c #EF6308",
"x 	c #E37A07",
"y 	c #FFE400",
"z 	c #FFE000",
"A 	c #FFCA00",
"B 	c #FFB100",
"C 	c #FFA800",
"D 	c #FF9A00",
"E 	c #FF6B00",
"F 	c #E4830A",
"G 	c #FFA300",
"H 	c #EF7E03",
"I 	c #D56307",
"J 	c #FF3F00",
"K 	c #FF4000",
"L 	c #F96701",
"M 	c #E18007",
"N 	c #FBB602",
"O 	c #FF9900",
"P 	c #FF8700",
"Q 	c #FFAA00",
"R 	c #FFA000",
"S 	c #FFA100",
"T 	c #FFB400",
"U 	c #FE8512",
"V 	c #EF7F03",
"W 	c #FF7700",
"X 	c #EF7B03",
"Y 	c #FF3700",
"Z 	c #FF3A00",
"` 	c #DB6D07",
" .	c #FFB300",
"..	c #FFC600",
"+.	c #FFCD00",
"@.	c #FFAC00",
"#.	c #FF5A00",
"$.	c #FF8100",
"%.	c #FF8B00",
"&.	c #FFC601",
"*.	c #D46A06",
"=.	c #FF5E00",
"-.	c #E07006",
";.	c #FF7F00",
">.	c #FF4E00",
",.	c #FF2E00",
"'.	c #FF3600",
").	c #ED8602",
"!.	c #FFC300",
"~.	c #FFA700",
"{.	c #FF8600",
"].	c #FF7400",
"^.	c #FF8000",
"/.	c #FFAE00",
"(.	c #FDAB0C",
"_.	c #E66B08",
":.	c #FF6700",
"<.	c #FF4C00",
"[.	c #FF2600",
"}.	c #FF2B00",
"|.	c #F58E01",
"1.	c #FF5200",
"2.	c #FF6000",
"3.	c #FF9200",
"4.	c #FF7300",
"5.	c #FF7100",
"6.	c #FFA900",
"7.	c #FFD100",
"8.	c #FFDD04",
"9.	c #FF4F00",
"0.	c #FF3800",
"a.	c #FF4900",
"b.	c #FF9400",
"c.	c #FF2F00",
"d.	c #FF1F00",
"e.	c #FF4A00",
"f.	c #E87C05",
"g.	c #FF4300",
"h.	c #FF3100",
"i.	c #FF3500",
"j.	c #FF8300",
"k.	c #FFB200",
"l.	c #FBCA0A",
"m.	c #FF3B00",
"n.	c #FF2800",
"o.	c #E07106",
"p.	c #FF7500",
"q.	c #FF4700",
"r.	c #FF2400",
"s.	c #FF1500",
"t.	c #FF1B00",
"u.	c #FB6101",
"v.	c #DC610B",
"w.	c #FF2100",
"x.	c #FF1A00",
"y.	c #FF2900",
"z.	c #FF7900",
"A.	c #FFAB00",
"B.	c #FFDC0C",
"C.	c #FF2A00",
"D.	c #FF1800",
"E.	c #F78901",
"F.	c #FF3300",
"G.	c #FF1600",
"H.	c #FF0600",
"I.	c #FF0A00",
"J.	c #FF1E00",
"K.	c #FF3E00",
"L.	c #FF4500",
"M.	c #FF0C00",
"N.	c #FF0D00",
"O.	c #FB0C00",
"P.	c #FFAC01",
"Q.	c #FBAE0A",
"R.	c #FF1C00",
"S.	c #FF0F00",
"T.	c #FF0700",
"U.	c #E80100",
"V.	c #F70100",
"W.	c #FF0900",
"X.	c #FF2300",
"Y.	c #FF1400",
"Z.	c #F90100",
"`.	c #DF0000",
" +	c #F80800",
".+	c #FF5300",
"++	c #FEA711",
"@+	c #F77B01",
"#+	c #FF0800",
"$+	c #FF0E00",
"%+	c #B70000",
"&+	c #CA0000",
"*+	c #F50100",
"=+	c #FF0400",
"-+	c #EB0100",
";+	c #CC0000",
">+	c #DA0000",
",+	c #F30400",
"'+	c #FF1100",
")+	c #FC8A04",
"!+	c #DE6608",
"~+	c #FF4100",
"{+	c #FF2000",
"]+	c #FF0B00",
"^+	c #FF0300",
"/+	c #800000",
"(+	c #8E0000",
"_+	c #C70000",
":+	c #FD0100",
"<+	c #E40000",
"[+	c #BD0000",
"}+	c #BF0000",
"|+	c #E60000",
"1+	c #FF0500",
"2+	c #FD630A",
"3+	c #F77E01",
"4+	c #FF5700",
"5+	c #FF3000",
"6+	c #FD0200",
"7+	c #E03305",
"8+	c #E03B02",
"9+	c #8D0000",
"0+	c #F60300",
"a+	c #EC0100",
"b+	c #D10000",
"c+	c #B80000",
"d+	c #D40000",
"e+	c #ED0700",
"f+	c #F80A00",
"g+	c #FF5500",
"h+	c #FA640C",
"i+	c #FB0100",
"j+	c #E80000",
"k+	c #E20000",
"l+	c #F10000",
"m+	c #E03406",
"n+	c #DA3014",
"o+	c #DA3215",
"p+	c #E74304",
"q+	c #B10000",
"r+	c #F10100",
"s+	c #D10100",
"t+	c #C00000",
"u+	c #DB0000",
"v+	c #F80000",
"w+	c #FF1200",
"x+	c #FF3C00",
"y+	c #EC6B0A",
"z+	c #E90000",
"A+	c #C50000",
"B+	c #D90000",
"C+	c #DA3518",
"D+	c #DE4C2C",
"E+	c #E46332",
"F+	c #F49226",
"G+	c #FEAD05",
"H+	c #EE0000",
"I+	c #EA0000",
"J+	c #F70000",
"K+	c #FE0E00",
"L+	c #FF4600",
"M+	c #FF7600",
"N+	c #FF9600",
"O+	c #FC6D11",
"P+	c #DA6309",
"Q+	c #FF4400",
"R+	c #AA0000",
"S+	c #A60000",
"T+	c #DE5131",
"U+	c #E68252",
"V+	c #FEDC61",
"W+	c #FEE04E",
"X+	c #FEC82A",
"Y+	c #F87C05",
"Z+	c #E50000",
"`+	c #F60000",
" @	c #FF8C00",
".@	c #FF8F00",
"+@	c #FFA301",
"@@	c #EF7703",
"#@	c #FF3400",
"$@	c #FF1700",
"%@	c #EF0000",
"&@	c #8F0000",
"*@	c #DC3902",
"=@	c #DE4B2C",
"-@	c #E07252",
";@	c #F1C286",
">@	c #FEF89B",
",@	c #FEEF74",
"'@	c #FEDB44",
")@	c #FEB819",
"!@	c #FF3200",
"~@	c #FF6900",
"{@	c #FF8800",
"]@	c #FF7B00",
"^@	c #FD750A",
"/@	c #9B0000",
"(@	c #A81800",
"_@	c #DA3114",
":@	c #DE5232",
"<@	c #E4805C",
"[@	c #FBE59B",
"}@	c #FEF9A5",
"|@	c #FEEC6C",
"1@	c #FED942",
"2@	c #FEB114",
"3@	c #FE0C00",
"4@	c #FF5D00",
"5@	c #FD840D",
"6@	c #D56407",
"7@	c #FF5800",
"8@	c #B20000",
"9@	c #770000",
"0@	c #DE320D",
"a@	c #E25829",
"b@	c #EC934E",
"c@	c #FEF485",
"d@	c #FEF27E",
"e@	c #FEDF4D",
"f@	c #FEAF15",
"g@	c #FB0200",
"h@	c #FF1D00",
"i@	c #FFD900",
"j@	c #FDB30A",
"k@	c #ED8603",
"l@	c #910000",
"m@	c #DB3414",
"n@	c #F3902D",
"o@	c #FEE557",
"p@	c #FEEC6B",
"q@	c #FEE354",
"r@	c #FD7D08",
"s@	c #F50000",
"t@	c #FF1300",
"u@	c #FFBE00",
"v@	c #FFDF00",
"w@	c #FDD80A",
"x@	c #FF9500",
"y@	c #B41F00",
"z@	c #DF3E14",
"A@	c #FED135",
"B@	c #FEE355",
"C@	c #FEDE4A",
"D@	c #FA0000",
"E@	c #FE1600",
"F@	c #FE0600",
"G@	c #FF5900",
"H@	c #EB0000",
"I@	c #CE0000",
"J@	c #920000",
"K@	c #E13D02",
"L@	c #FEC426",
"M@	c #FED035",
"N@	c #FD8E05",
"O@	c #FE0800",
"P@	c #F00000",
"Q@	c #FC0200",
"R@	c #FFC100",
"S@	c #FFE100",
"T@	c #FCD909",
"U@	c #FB0400",
"V@	c #CF0000",
"W@	c #C40000",
"X@	c #FEA803",
"Y@	c #FB8A01",
"Z@	c #FF4D00",
"`@	c #FF6E00",
" #	c #FF2700",
".#	c #FE0400",
"+#	c #F20000",
"@#	c #FD0400",
"##	c #FF9B00",
"$#	c #FFC500",
"%#	c #FFE001",
"&#	c #FBD809",
"*#	c #FF0100",
"=#	c #F80400",
"-#	c #F30300",
";#	c #FFB000",
">#	c #FF2500",
",#	c #FE0500",
"'#	c #FD0600",
")#	c #FF6500",
"!#	c #FF9C00",
"~#	c #FFC700",
"{#	c #FFE101",
"]#	c #FBCA09",
"^#	c #FF2D00",
"/#	c #FF9700",
"(#	c #FFC403",
"_#	c #FFD408",
":#	c #FF5400",
"<#	c #EC0000",
"[#	c #FFD401",
"}#	c #FFC200",
"|#	c #FED411",
"1#	c #FF8400",
"2#	c #FFA200",
"3#	c #F30000",
"4#	c #F95901",
"5#	c #DC5E0C",
"6#	c #F96901",
"7#	c #FFE200",
"8#	c #E57B07",
"9#	c #FFD700",
"0#	c #FFD000",
"a#	c #FFDF08",
"b#	c #FF2C00",
"c#	c #FB5701",
"d#	c #EB5412",
"e#	c #E97306",
"f#	c #FF7A00",
"g#	c #FEDD0B",
"h#	c #FDDB09",
"i#	c #FFDE00",
"j#	c #FFBD00",
"k#	c #FF1900",
"l#	c #F90000",
"m#	c #FFE007",
"n#	c #F1540E",
"o#	c #D6660B",
"p#	c #DC6707",
"q#	c #FFD400",
"r#	c #F6AE0A",
"s#	c #FFE106",
"t#	c #FFD800",
"u#	c #FE0000",
"v#	c #F7AD07",
"w#	c #F75705",
"x#	c #FFC800",
"y#	c #FFE005",
"z#	c #FBD906",
"A#	c #FFE401",
"B#	c #FFCC00",
"C#	c #FF6100",
"D#	c #FF6D00",
"E#	c #EB6D07",
"F#	c #FB5D01",
"G#	c #FF6600",
"H#	c #FDDA09",
"I#	c #FB5E02",
"J#	c #E97505",
"K#	c #FFBA00",
"L#	c #FFE300",
"M#	c #FEDE09",
"N#	c #FFDB00",
"O#	c #FFB900",
"P#	c #F75B05",
"Q#	c #E85E10",
"R#	c #ED5D0D",
"S#	c #D6660A",
"T#	c #E26D07",
"U#	c #FF7E00",
"V#	c #F18E0B",
"W#	c #FFE504",
"X#	c #FFAF00",
"Y#	c #F16209",
"Z#	c #E05E0E",
"`#	c #D46609",
" $	c #D96307",
".$	c #DA610A",
"+$	c #FFE800",
"@$	c #FFCE00",
"#$	c #FFC400",
"$$	c #FD9501",
"%$	c #F16609",
"&$	c #F56405",
"*$	c #FFE301",
"=$	c #FFD90D",
"-$	c #FDD90B",
";$	c #E45E0E",
">$	c #E87705",
",$	c #D96308",
"'$	c #E46B07",
"                                                                                                    ",
"                                            .                                               . +     ",
"                                            @ #                                           $ % &     ",
"                                            * =                                         - ; >       ",
"                                          , ' )                                     ! ~ { ]         ",
"                                          ^ / (                                   _ ' : < [         ",
"                                          } | 1                               2 3 4 5 6 7           ",
"                                          8 6 9 0                           a b c d e f g           ",
"                                        $ h i j k                       l m n o p q r s             ",
"    t !                                 } : u v w                     x y z A B C D E F             ",
"    ! G H I                             8 6 J K L                 M N O P Q R O S T U               ",
"      V W | X I                       $ h i Y Z f               `  ...+.@.#.$.%.A &.                ",
"      *./ 6 =.| X I                   -.;.>.,.'.6 0         , ).;  .!.~.{.].^./.c (.                ",
"        _.:.<.v =.| X I               % f Z [.}.i k       $ |.: 1.2.3.4.E 5.6.7.8.                  ",
"        *.;.9.0.'.a.=.| X I         ! b.j c.d.[.e.w   , f.; 9 g.h.i 2.i.1.j.k.7.l.                  ",
"          _.:.m.n.[.i.a.=.| X I     o.p.q.r.s.t.Z u.v.|.].j 0.w.x.r.w.y.z.A.7.B.                    ",
"          *.;.9.C.x.D.[.i.a.=.| X I E.5 F.G.H.I.J.K.E 9 L.c.x.M.N.O.N.K.j.R P.Q.                    ",
"            _.:.m.R.S.S.D.[.i.a.=.| 6 Y D.T.U.V.W.J.K.0.X.Y.T.Z.`.U. +.+C 6.++                      ",
"              @+j c.Y.W.#+$+D.[.i.a.Y D.T.U.%+&+*+W.J.x.M.=+-+;+>+,+'+m.P )+                        ",
"              !+1 ~+{+]+^+^+H.$+D.[.D.T.U.%+/+(+_+*+W.T.:+<+[+}+|+1+G.F.6 2+                        ",
"                3+4+5+Y.1+Z.V.6+H.$+T.U.%+/+7+8+9+_+0+a+b+c+d+e+f+Y.c.g+h+                          ",
"                !+1 ~+{+]+i+j+k+l+6+U.%+/+m+n+o+p+q+r+s+t+u+v+w+x+r.a.6 y+                          ",
"                  3+4+5+Y.1+z+&+A+B+%+/+m+C+D+E+F+G+H+}+I+J+K+F.L+M+N+O+                            ",
"                  P+5.Q+X.M.i+b+R+S+/+m+C+T+U+V+W+X+Y+Z+`+K+Z 4. @.@+@                              ",
"                    @@r #@$@H.%@%+&@*@n+=@-@;@>@,@'@)@<+v+K+!@~@{@]@^@                              ",
"                    I | a.[.$+6+B+/@(@_@:@<@[@}@|@1@2@Z+J+3@x+4@].M+5@                              ",
"                    6@%.7@5+s.1+j+8@9@0@a@b@c@d@e@f@|+z+%@g@h@q.1.{@i@j@                            ",
"                    k@1 ~+{+]+Z.;+l@*@m@n@o@p@q@r@I+v+s@I+%@g@t@,.3.u@v@w@                          ",
"                  ! x@4+5+Y.1+|+b+/@y@z@A@B@C@r@%@D@E@F@s@I+%@i+R.G@3.u@v@w@                        ",
"                  k@1 ~+{+]+Z.H@k+I@J@K@L@M@N@%@6+$@e i.O@`+I+P@Q@w.4@b.R@S@T@                      ",
"                ! x@4+5+Y.1+i+s@U@V.V@W@X@Y@%@6+n.Z@^.`@ #.#`+H@+#@#n.f ##$#%#&#                    ",
"                k@1 ~+{+]+=+*#H.t@]+=#-#Z+W@6+n.6 P ;#%.1.>#,#`+H@+#'#C.)#!#~#{#]#                  ",
"              ! x@4+5+Y.W.1+H.G.^#w.]+=#b+`.n.6 /#(#_#@.4 :#'.O@`+<#+#'#C.:.!#~#[#&#                ",
"              k@1 ~+{+t@]+G.D.!@:#u w.]+=# #6 /#}#|#  P.1#2#].0.O@`+<#3#'#C.:.!#~#{#&#              ",
"            ! x@4+5+h@s.D.c.'.4#5#6#g.>##@:./#}#7#    8#9#~#!#:.n.@#+#H@J+H.Z W Q 0#a#              ",
"            k@1 ~+b#d.h.'.c#d#    e#9 ~+f#^.;#o g#      h#i#j#.@4+k#g@l+P@l#M.g.^.;#o m#            ",
"          ! x@4+m.c.#@4+n#o#      p#z.`@R .@/.q#r#        s#t# .1#e $+D@`+D@u#G.L+^.;#o v#          ",
"          k@1 9.x+g+w#o#          6@; )###8 x#y#          z#A#B#G C#^##+$+w+C.x+g+D#3.`@=.E#        ",
"        ! x@G@a.F#5#                3.G#6.A.B#[             H#S@R@N+Q+'+t.L+)#x+E G#L.0.e.:.E#      ",
"        k@].I#d#                    J#: K###L#                M#N#O#M+X.h@X.,.5+g.<.g+7@P#Q#&       ",
"      ! /#R#S#                      T#U#Q U#V#                  W#o X#!#!#e e g+f Y#Z#S#            ",
"      o.`#                           $^.4+=..$                  z#+$@$#$o $$%$Z#                    ",
"                                      {@=.&$                      H#*$=$-$                          ",
"                                      V 1 ;$                                                        ",
"                                      >$j.                                                          ",
"                                      ,$'$                                                          ",
"                                      , I                                                           ",
"                                                                                                    ",
"                                                                                                    ",
"                                                                                                    "};
