/* XPM */
static char * feuer3_xpm[] = {
"50 50 794 2",
"  	c None",
". 	c #FCF007",
"+ 	c #FCED07",
"@ 	c #FAE707",
"# 	c #F9E507",
"$ 	c #FBEF06",
"% 	c #F5D207",
"& 	c #ECAD07",
"* 	c #FBEE07",
"= 	c #ED9106",
"- 	c #E26D07",
"; 	c #FCEF07",
"> 	c #FBEB07",
", 	c #F67704",
"' 	c #EF7705",
") 	c #FFE709",
"! 	c #FFE706",
"~ 	c #FBDE07",
"{ 	c #FD7203",
"] 	c #FB7F01",
"^ 	c #F96507",
"/ 	c #FFAA04",
"( 	c #FFD406",
"_ 	c #FFD806",
": 	c #FFDE04",
"< 	c #FFE604",
"[ 	c #FBE607",
"} 	c #FBE907",
"| 	c #FA9705",
"1 	c #FF6801",
"2 	c #FD7C00",
"3 	c #E76509",
"4 	c #EB610B",
"5 	c #F75F07",
"6 	c #FC5A04",
"7 	c #F85305",
"8 	c #FC5103",
"9 	c #FF7900",
"0 	c #FFA101",
"a 	c #FFB101",
"b 	c #FFC801",
"c 	c #FFDF02",
"d 	c #FFEA04",
"e 	c #F9D207",
"f 	c #FB6702",
"g 	c #FF7000",
"h 	c #F97A01",
"i 	c #EE7404",
"j 	c #E86A0A",
"k 	c #F46209",
"l 	c #F85905",
"m 	c #F35604",
"n 	c #F85504",
"o 	c #FD5803",
"p 	c #FF5100",
"q 	c #FF4600",
"r 	c #FF3D00",
"s 	c #FF3F00",
"t 	c #FF6700",
"u 	c #FF9900",
"v 	c #FFCC00",
"w 	c #FFE503",
"x 	c #FACD06",
"y 	c #FE8D02",
"z 	c #FF8A01",
"A 	c #F87F02",
"B 	c #ED7205",
"C 	c #EF700A",
"D 	c #EA7606",
"E 	c #E47206",
"F 	c #EE6B08",
"G 	c #F86205",
"H 	c #FF5202",
"I 	c #FF4B00",
"J 	c #FF5300",
"K 	c #FF5C00",
"L 	c #FF5200",
"M 	c #FF4400",
"N 	c #FF3C00",
"O 	c #FF2D00",
"P 	c #FF1E00",
"Q 	c #FF2C00",
"R 	c #FF6800",
"S 	c #FFAD00",
"T 	c #FFD602",
"U 	c #FFE504",
"V 	c #FECB03",
"W 	c #FFAE01",
"X 	c #FF9B00",
"Y 	c #FB8202",
"Z 	c #F27504",
"` 	c #F05B0C",
" .	c #F36507",
"..	c #F77605",
"+.	c #F17F04",
"@.	c #E57605",
"#.	c #FC6C03",
"$.	c #FF6A01",
"%.	c #FF6D00",
"&.	c #FF7300",
"*.	c #FF6B00",
"=.	c #FF3400",
"-.	c #FE2200",
";.	c #FE0D00",
">.	c #FF1100",
",.	c #FF4100",
"'.	c #FF8700",
").	c #FFC001",
"!.	c #FFDE02",
"~.	c #FFE704",
"{.	c #FEE406",
"].	c #FFCD01",
"^.	c #FFB400",
"/.	c #FF9800",
"(.	c #FF8001",
"_.	c #F97B02",
":.	c #FB5607",
"<.	c #FB5407",
"[.	c #FC6703",
"}.	c #FB7C02",
"|.	c #F48502",
"1.	c #FEA403",
"2.	c #FFB200",
"3.	c #FFA500",
"4.	c #FF4700",
"5.	c #FF2300",
"6.	c #FD1200",
"7.	c #FB0900",
"8.	c #FB0200",
"9.	c #FD0700",
"0.	c #FF2700",
"a.	c #FF6200",
"b.	c #FFA000",
"c.	c #FFCE01",
"d.	c #FFE202",
"e.	c #FFE805",
"f.	c #FEDA05",
"g.	c #FFA900",
"h.	c #FF8F00",
"i.	c #FF7E00",
"j.	c #F77B02",
"k.	c #F45E07",
"l.	c #F75305",
"m.	c #FD4D02",
"n.	c #FF5501",
"o.	c #FE6F00",
"p.	c #F67F01",
"q.	c #FFDE03",
"r.	c #FFC901",
"s.	c #FF9A01",
"t.	c #FF5E00",
"u.	c #F80000",
"v.	c #F40000",
"w.	c #F70200",
"x.	c #FD1300",
"y.	c #FF3E00",
"z.	c #FF7A00",
"A.	c #FFD702",
"B.	c #FFE804",
"C.	c #FDE107",
"D.	c #FDE005",
"E.	c #FFB301",
"F.	c #FF8500",
"G.	c #FF7500",
"H.	c #F67203",
"I.	c #E87207",
"J.	c #F15D09",
"K.	c #F55405",
"L.	c #FD4802",
"M.	c #FE3F02",
"N.	c #FE4400",
"O.	c #FF5F00",
"P.	c #F97901",
"Q.	c #F08203",
"R.	c #FFEE06",
"S.	c #FFDD04",
"T.	c #FFC202",
"U.	c #FE1D00",
"V.	c #F90400",
"W.	c #F20000",
"X.	c #F10000",
"Y.	c #F80600",
"Z.	c #FD1F00",
"`.	c #FF9100",
" +	c #FFC501",
".+	c #FFD803",
"++	c #FCCD05",
"@+	c #FDEB07",
"#+	c #FDE806",
"$+	c #FED503",
"%+	c #FFA600",
"&+	c #FF7F00",
"*+	c #FF5B00",
"=+	c #F96402",
"-+	c #F17306",
";+	c #F55809",
">+	c #F65206",
",+	c #FA4604",
"'+	c #FE3901",
")+	c #FF3000",
"!+	c #FF4900",
"~+	c #FD6E01",
"{+	c #F48203",
"]+	c #FFE406",
"^+	c #FFB700",
"/+	c #FF8000",
"(+	c #FF4300",
"_+	c #FC1600",
":+	c #F50300",
"<+	c #F00000",
"[+	c #F30000",
"}+	c #FA0A00",
"|+	c #FE2D00",
"1+	c #FFA300",
"2+	c #FFB902",
"3+	c #FCB003",
"4+	c #FDE505",
"5+	c #FFB601",
"6+	c #FF5400",
"7+	c #FF3700",
"8+	c #FF3800",
"9+	c #FE5101",
"0+	c #F76704",
"a+	c #F46506",
"b+	c #FB4D06",
"c+	c #FD4003",
"d+	c #FE3601",
"e+	c #FF2800",
"f+	c #FF2000",
"g+	c #FF3600",
"h+	c #FE5E01",
"i+	c #EE8304",
"j+	c #FFE407",
"k+	c #FFCE02",
"l+	c #FFAB00",
"m+	c #FF7400",
"n+	c #FE3B00",
"o+	c #FA1200",
"p+	c #F50200",
"q+	c #F50100",
"r+	c #FC1100",
"s+	c #FF3A00",
"t+	c #FF6C00",
"u+	c #FF8B00",
"v+	c #FF9B01",
"w+	c #FEB504",
"x+	c #FFD70A",
"y+	c #FED506",
"z+	c #FEB703",
"A+	c #FF8300",
"B+	c #FB4C00",
"C+	c #F52000",
"D+	c #F90D00",
"E+	c #FF1800",
"F+	c #FF3701",
"G+	c #FD4F02",
"H+	c #FC4C03",
"I+	c #FF3602",
"J+	c #FF1000",
"K+	c #FF1200",
"L+	c #FF2600",
"M+	c #FB7101",
"N+	c #F28303",
"O+	c #FFDC07",
"P+	c #FFDA04",
"Q+	c #FFCC01",
"R+	c #FFA800",
"S+	c #FE3600",
"T+	c #FC0F00",
"U+	c #F80200",
"V+	c #FF3200",
"W+	c #FF5800",
"X+	c #FFB703",
"Y+	c #FFC705",
"Z+	c #FFAF03",
"`+	c #FF7D00",
" @	c #EC1600",
".@	c #E20400",
"+@	c #EC0000",
"@@	c #FA0600",
"#@	c #FF1B00",
"$@	c #FF2E00",
"%@	c #FF1A00",
"&@	c #FF0C00",
"*@	c #FF0600",
"=@	c #FF0A00",
"-@	c #FF1900",
";@	c #F77D02",
">@	c #ED8304",
",@	c #FFE306",
"'@	c #FFDF03",
")@	c #FFCD02",
"!@	c #FFA501",
"~@	c #FA0D00",
"{@	c #F40100",
"]@	c #F70100",
"^@	c #FD0E00",
"/@	c #FF6300",
"(@	c #FF9801",
"_@	c #FF9D01",
":@	c #FF7601",
"<@	c #FB1200",
"[@	c #E80C00",
"}@	c #E12300",
"|@	c #E61700",
"1@	c #F00300",
"2@	c #FB0700",
"3@	c #FF1300",
"4@	c #FE0700",
"5@	c #FF0100",
"6@	c #FF0400",
"7@	c #FF4F00",
"8@	c #FC7401",
"9@	c #F38403",
"0@	c #FFE606",
"a@	c #FFE004",
"b@	c #FFCB02",
"c@	c #FF9E00",
"d@	c #F20100",
"e@	c #EF0000",
"f@	c #FD4400",
"g@	c #FB9604",
"h@	c #F97F03",
"i@	c #F14104",
"j@	c #EF770A",
"k@	c #E75208",
"l@	c #DB1101",
"m@	c #E30000",
"n@	c #F60400",
"o@	c #FB0400",
"p@	c #FB0100",
"q@	c #FD0000",
"r@	c #FF0800",
"s@	c #FE6500",
"t@	c #F87F01",
"u@	c #EF8603",
"v@	c #FF9700",
"w@	c #FF2400",
"x@	c #F80700",
"y@	c #F50600",
"z@	c #FD1C00",
"A@	c #FF3100",
"B@	c #FC2F00",
"C@	c #FB9504",
"D@	c #FA9805",
"E@	c #F9950A",
"F@	c #FBA01E",
"G@	c #FBC425",
"H@	c #E78118",
"I@	c #C52204",
"J@	c #BF0000",
"K@	c #D90000",
"L@	c #F60000",
"M@	c #FD0300",
"N@	c #FF2B00",
"O@	c #FB7502",
"P@	c #F28302",
"Q@	c #FFDA03",
"R@	c #FFC201",
"S@	c #FF8D00",
"T@	c #FF4500",
"U@	c #FE1500",
"V@	c #F80300",
"W@	c #F00100",
"X@	c #F70600",
"Y@	c #FA0700",
"Z@	c #FA8103",
"`@	c #F9A005",
" #	c #FAED07",
".#	c #FCC71D",
"+#	c #FFE144",
"@#	c #FDD63E",
"##	c #E98421",
"$#	c #C32D07",
"%#	c #AB0700",
"&#	c #BB0000",
"*#	c #DD0000",
"=#	c #FF0900",
"-#	c #FB6801",
";#	c #F47E03",
">#	c #FFD905",
",#	c #FFCC03",
"'#	c #FFA301",
")#	c #FF2F00",
"!#	c #FF1500",
"~#	c #F60600",
"{#	c #F89C04",
"]#	c #FAE407",
"^#	c #FEE851",
"/#	c #FCE831",
"(#	c #F9B242",
"_#	c #E8681F",
":#	c #AB0E00",
"<#	c #B60618",
"[#	c #C80D43",
"}#	c #FA0500",
"|#	c #FF1400",
"1#	c #F97B01",
"2#	c #F38503",
"3#	c #FFB107",
"4#	c #FF9702",
"5#	c #FF7100",
"6#	c #FB1400",
"7#	c #E6071F",
"8#	c #CC0F48",
"9#	c #E42212",
"0#	c #F78F12",
"a#	c #FBC741",
"b#	c #FFF378",
"c#	c #FEF789",
"d#	c #FAEB0F",
"e#	c #EE7F3D",
"f#	c #DC4619",
"g#	c #B21D06",
"h#	c #A30700",
"i#	c #B01158",
"j#	c #B51A86",
"k#	c #FE0900",
"l#	c #FF1F00",
"m#	c #FF4200",
"n#	c #FE6D01",
"o#	c #F17E03",
"p#	c #FF8D09",
"q#	c #FF8804",
"r#	c #FF4800",
"s#	c #FE1C00",
"t#	c #E60922",
"u#	c #AD2295",
"v#	c #C14970",
"w#	c #FFCE2C",
"x#	c #FEE85F",
"y#	c #FEFD99",
"z#	c #FBF09C",
"A#	c #EBA26D",
"B#	c #E45E3B",
"C#	c #DA381A",
"D#	c #B51F06",
"E#	c #9F0800",
"F#	c #AD125B",
"G#	c #B51B86",
"H#	c #FC6B01",
"I#	c #EC7704",
"J#	c #FF8E07",
"K#	c #FF8E02",
"L#	c #FF8900",
"M#	c #E80822",
"N#	c #AD2496",
"O#	c #DA623F",
"P#	c #FFDC34",
"Q#	c #FFF364",
"R#	c #FFF78A",
"S#	c #F6D888",
"T#	c #E4845E",
"U#	c #E15034",
"V#	c #DC3818",
"W#	c #C32A06",
"X#	c #9F0E00",
"Y#	c #9D197D",
"Z#	c #AF1A86",
"`#	c #FB0600",
" $	c #FE5D01",
".$	c #F47203",
"+$	c #FF8E04",
"@$	c #FF8901",
"#$	c #FF7700",
"$$	c #FC1001",
"%$	c #E10622",
"&$	c #A423A4",
"*$	c #BE3E6F",
"=$	c #FCB719",
"-$	c #FDDE2E",
";$	c #F8CC5A",
">$	c #ED9A5A",
",$	c #E05F40",
"'$	c #DC4022",
")$	c #D22E0E",
"!$	c #B21A03",
"~$	c #96196B",
"{$	c #9B1B88",
"]$	c #BF0A34",
"^$	c #F10100",
"/$	c #FE0B00",
"($	c #FF2200",
"_$	c #FC6802",
":$	c #F17404",
"<$	c #FE6E07",
"[$	c #FF7003",
"}$	c #FC1400",
"|$	c #EA0506",
"1$	c #D00622",
"2$	c #AB1983",
"3$	c #AE2588",
"4$	c #F39807",
"5$	c #F8C60E",
"6$	c #F6C116",
"7$	c #EA7826",
"8$	c #D93D20",
"9$	c #C92A0D",
"0$	c #B51703",
"a$	c #9F1761",
"b$	c #A01B88",
"c$	c #B80C3F",
"d$	c #CE0000",
"e$	c #E60000",
"f$	c #FF3300",
"g$	c #FE5A01",
"h$	c #F67003",
"i$	c #FF6208",
"j$	c #FF5905",
"k$	c #FF4601",
"l$	c #FF2A00",
"m$	c #F41100",
"n$	c #E50500",
"o$	c #D40000",
"p$	c #CD0000",
"q$	c #B71364",
"r$	c #AC1B88",
"s$	c #C8211E",
"t$	c #DE7506",
"u$	c #EA8F0B",
"v$	c #DB4311",
"w$	c #C4250B",
"x$	c #B21403",
"y$	c #AB0C26",
"z$	c #A61B88",
"A$	c #C71052",
"B$	c #E90100",
"C$	c #DE0000",
"D$	c #FF0B00",
"E$	c #FC6901",
"F$	c #F37904",
"G$	c #FF6105",
"H$	c #FF4A02",
"I$	c #FC0C00",
"J$	c #F00500",
"K$	c #DA0200",
"L$	c #CF0000",
"M$	c #DA0000",
"N$	c #EF0200",
"O$	c #B51A84",
"P$	c #BC0B39",
"Q$	c #B90D00",
"R$	c #B5211A",
"S$	c #A5255B",
"T$	c #A01C5C",
"U$	c #9F1A7C",
"V$	c #A81B88",
"W$	c #BA1B7C",
"X$	c #FD0900",
"Y$	c #F30200",
"Z$	c #FE0600",
"`$	c #FF1600",
" %	c #F77403",
".%	c #FF7402",
"+%	c #FD1900",
"@%	c #F30400",
"#%	c #E00000",
"$%	c #D00000",
"%%	c #D30000",
"&%	c #E20000",
"*%	c #F40400",
"=%	c #ED0200",
"-%	c #CC0100",
";%	c #A01343",
">%	c #951E86",
",%	c #9D1C86",
"'%	c #AC1A84",
")%	c #DD0F2D",
"!%	c #FD1600",
"~%	c #FF1C00",
"{%	c #FD0C00",
"]%	c #FC0400",
"^%	c #FD0100",
"/%	c #FF0300",
"(%	c #FF4E00",
"_%	c #FA6B01",
":%	c #FFAA09",
"<%	c #FFA405",
"[%	c #FF8801",
"}%	c #FF4C00",
"|%	c #FB1500",
"1%	c #EE0100",
"2%	c #E10000",
"3%	c #EC0200",
"4%	c #EC0300",
"5%	c #CB0000",
"6%	c #C00000",
"7%	c #DB0100",
"8%	c #FF2100",
"9%	c #FF0500",
"0%	c #FB5F01",
"a%	c #F67104",
"b%	c #FFBA0B",
"c%	c #FFB507",
"d%	c #FFAD03",
"e%	c #FA1300",
"f%	c #F20300",
"g%	c #F10200",
"h%	c #FF2900",
"i%	c #F20200",
"j%	c #F90800",
"k%	c #FB6401",
"l%	c #FD5800",
"m%	c #FF1D00",
"n%	c #FF4D01",
"o%	c #FC6C02",
"p%	c #FFCE06",
"q%	c #FFC302",
"r%	c #FF3900",
"s%	c #FD1B00",
"t%	c #FC1200",
"u%	c #FD1000",
"v%	c #FF4000",
"w%	c #FE5901",
"x%	c #FB6802",
"y%	c #FB6202",
"z%	c #FE4501",
"A%	c #FE5900",
"B%	c #F87302",
"C%	c #F27904",
"D%	c #F57003",
"E%	c #FB6501",
"F%	c #FD5401",
"G%	c #FE5C01",
"H%	c #F57304",
"I%	c #FFE007",
"J%	c #FFD604",
"K%	c #FFBC02",
"L%	c #FD6802",
"M%	c #F77703",
"N%	c #EF7D05",
"O%	c #F27206",
"P%	c #FA5803",
"Q%	c #FF3801",
"R%	c #FB7001",
"S%	c #F07E04",
"T%	c #E57D07",
"U%	c #F27404",
"V%	c #F76E03",
"W%	c #FB6301",
"X%	c #FD5000",
"Y%	c #FF3B00",
"Z%	c #FE4C00",
"`%	c #F96903",
" &	c #EE7605",
".&	c #FFD804",
"+&	c #FFCA02",
"@&	c #FF7B00",
"#&	c #FF5A00",
"$&	c #FF4D00",
"%&	c #FF5A01",
"&&	c #FA7001",
"*&	c #F37A04",
"=&	c #EC7F05",
"-&	c #FD4403",
";&	c #FE6000",
">&	c #F87C01",
",&	c #EE8204",
"'&	c #EE7804",
")&	c #F37403",
"!&	c #F86D01",
"~&	c #FC5F01",
"{&	c #FB5E02",
"]&	c #F37104",
"^&	c #FFC906",
"/&	c #FFC703",
"(&	c #FFB001",
"_&	c #FF9F00",
":&	c #FD7301",
"<&	c #F77502",
"[&	c #EE7E03",
"}&	c #F35F09",
"|&	c #FC4C04",
"1&	c #F78202",
"2&	c #EF7804",
"3&	c #F47303",
"4&	c #FA6A02",
"5&	c #FE5700",
"6&	c #F86B03",
"7&	c #ED7306",
"8&	c #FFC104",
"9&	c #FFB702",
"0&	c #FFBB00",
"a&	c #FFBF00",
"b&	c #FCA301",
"c&	c #F78402",
"d&	c #F07B03",
"e&	c #F16207",
"f&	c #FC5202",
"g&	c #FF3500",
"h&	c #FF5900",
"i&	c #F87602",
"j&	c #EF7C03",
"k&	c #EF7604",
"l&	c #F67103",
"m&	c #FA6702",
"n&	c #FE5C00",
"o&	c #F47304",
"p&	c #FFA007",
"q&	c #FFB302",
"r&	c #FFAE00",
"s&	c #FF8E00",
"t&	c #FF9300",
"u&	c #FEB502",
"v&	c #FDB902",
"w&	c #F5A204",
"x&	c #FF5301",
"y&	c #FF6500",
"z&	c #F77E02",
"A&	c #EA7805",
"B&	c #F07804",
"C&	c #F57103",
"D&	c #FA6C01",
"E&	c #FD7001",
"F&	c #F97902",
"G&	c #F07C04",
"H&	c #FA7D09",
"I&	c #FE8305",
"J&	c #FFB300",
"K&	c #FFC200",
"L&	c #FFC500",
"M&	c #FDB302",
"N&	c #FAA304",
"O&	c #F9A304",
"P&	c #FE5702",
"Q&	c #FE6C01",
"R&	c #FA8A02",
"S&	c #F07103",
"T&	c #F67603",
"U&	c #F68002",
"V&	c #F18103",
"W&	c #FD7006",
"X&	c #FF6802",
"Y&	c #FF8C00",
"Z&	c #FFBA00",
"`&	c #FFD501",
" *	c #FFE601",
".*	c #FFE702",
"+*	c #FBC804",
"@*	c #F85906",
"#*	c #FE4D01",
"$*	c #FF5500",
"%*	c #FC7202",
"&*	c #F48504",
"**	c #F28203",
"=*	c #EB7E03",
"-*	c #E47505",
";*	c #FF9207",
">*	c #FF6403",
",*	c #FF8800",
"'*	c #FFC400",
")*	c #FFEF04",
"!*	c #F25B08",
"~*	c #FC5902",
"{*	c #F97A02",
"]*	c #E47704",
"^*	c #FFB708",
"/*	c #FF6601",
"(*	c #FD8800",
"_*	c #FBB101",
":*	c #FBC504",
"<*	c #F46206",
"[*	c #FD6701",
"}*	c #FF7901",
"|*	c #FC8602",
"1*	c #FFB606",
"2*	c #FF9102",
"3*	c #FD7701",
"4*	c #F87701",
"5*	c #F68603",
"6*	c #FD6E03",
"7*	c #FA7D02",
"8*	c #F38204",
"9*	c #FE9804",
"0*	c #FE9E02",
"a*	c #FC9301",
"b*	c #F58302",
"c*	c #EB7E04",
"d*	c #FD7A01",
"e*	c #F57C03",
"f*	c #E27007",
"g*	c #EE7207",
"h*	c #F57C04",
"i*	c #F58A02",
"j*	c #F67C04",
"k*	c #F27F04",
"l*	c #E77406",
"m*	c #EB7605",
"n*	c #E86D08",
"o*	c #EA7507",
"p*	c #EC7E06",
"q*	c #E17206",
"r*	c #DF6A07",
"s*	c #DF6D07",
"                                                                                                    ",
"                                                          .                                         ",
"                                                          . .                                       ",
"                                                        + @ #                                       ",
"                                                        $ % &                                       ",
"                                                      . * = -                                       ",
"                                                      ; > , '                                       ",
"                            ) !                       ; ~ { ]                                       ",
"                      ^ / ( _ : <                   [ } | 1 2                                       ",
"            3 4 5 6 7 8 9 0 a b c d                   e f g h i                                     ",
"      j k l m n o p q r s p t u v w                   x y z A B                         C D E       ",
"      F G H I J K L M N O P Q R S T U                 V W X Y Z                     `  ...+.@.      ",
"        #.$.%.&.*.p N =.-.;.>.,.'.).!.~.            {.].^./.(._.                  :.<.[.}.|.        ",
"          1.2.3.9 4.5.6.7.8.9.0.a.b.c.d.e.          f.).g.h.i.j.              k.l.m.n.o.p.          ",
"            q.r.s.t.0.9.u.v.w.x.y.z.^.A.B.        C.D.E./.F.G.H.I.        J.K.L.M.N.O.P.Q.          ",
"            R.S.T.h.p U.V.W.X.Y.Z.L `. +.+++    @+#+$+%+&+t *+=+-+    ;+>+,+'+O )+!+~+{+            ",
"              ]+A.^+/+(+_+:+<+[+}+|+R 1+2+3+    ; 4+5+F.6+7+8+9+0+a+b+c+d+e+P f+g+h+j.i+            ",
"              j+S.k+l+m+n+o+p+X.q+r+s+t+u+v+w+x+y+z+A+B+C+D+E+F+G+H+I+5.E+J+K+L+I M+N+              ",
"                O+P+Q+R+g S+T+[+W.U+6.V+W+A+X+Y+Z+`+M  @.@+@@@#@$@Q %@&@*@=@-@8+a.;@>@              ",
"                  ,@'@)@!@*.V+~@{@W.]@^@$@/@(@_@:@s <@[@}@|@1@2@3@3@4@5@6@J+e+7@8@9@                ",
"                    0@a@b@c@a.Q }+d@e@p+x.r t /@f@g@h@i@j@k@l@m@n@o@p@q@r@-@r s@t@u@                ",
"                      ! q. +v@*+w@x@X.e@y@z@A@B@C@D@E@F@G@H@I@J@K@+@L@M@J+N@J O@P@                  ",
"                        0@Q@R@S@T@U@V@X.W@X@Y@Z@`@ #.#+#@###$#%#&#*#q+=#P ,.-#;#                    ",
"                          >#,#'#O.)#!#~#<+e@<+{#]#+ ^#/#(#_#$#:#<#[#}#|#)+K 1#2#                    ",
"                            3#4#5#L 7+6#7#8#9#0#a#b#c#d#e#f#g#h#i#j#k#l#m#n#o#                      ",
"                            p#q#&+%.r#s#t#u#v#w#x#y#z#A#B#C#D#E#F#G#=@f+T@H#I#                      ",
"                            J#K#L#&.!+#@M#N#O#P#Q#R#S#T#U#V#W#X#Y#Z#`#!#=. $.$                      ",
"                            +$@$#$K =.$$%$&$*$=$-$;$>$,$'$)$!$~${$]$^$/$($4._$:$                    ",
"                          <$[$O.4.)#}$|$1$2$3$4$5$6$7$8$9$0$a$b$c$d$e$o@|#f$g$h$                    ",
"                        i$j$k$l$s#m$n$o$p$q$r$s$t$u$v$w$x$y$z$A$B$C$e$]@D$($!+E$F$                  ",
"                        G$H$0.I$J$K$L$p$M$N$O$P$Q$R$S$T$U$V$W$X$@@Y$X.u.Z$`$g+ $ %                  ",
"                      q#.%r#+%@%#%$%%%&%*%D$D$=%-%;%>%,%'%)%!%~%`${%]%^%/%&@L+(%_%                  ",
"                    :%<%[%}%|%1%2%2%3%x@K+P f+r+4%5%6%7%Y.-@=.s =.8%K+=#9%r@-@N 0%a%                ",
"                  b%c%d%'.T@e%f%g%X@I$#@)+,.,.h%T+i%3%j%%@8+W+k%l%T@)#m%J+D$J+L+n%o%                ",
"                  p%q%3.5#r%s%t%u%!#L+v%w%x%y%z%5.&@r@`$=.A%B%C%D%E%F%v%N@%@K+-@g+G%H%              ",
"                I%J%K%h.K r 7+A@h%f$(%L%M%N%O%P%Q%~%3@0.(%R%S%T%  U%V%W%X%Y%0.P N@Z%`% &            ",
"                .&+&3.@&a.a.t #&$&%&&&*&=&    5 -&0.l#7+;&>&,&      '&)&!&~&}%7+)+,.{&]&            ",
"              ^&/&(&L#m+/+/._&'.:&<&[&        }&|&)#l$!+~+1&            2&3&4&g$!+T@5&6&7&          ",
"              8&9&/.9 #$u 0&a&b&c&d&          e&f&8+g&h&i&j&                k&l&m&n&K _$o&          ",
"            p&q&r&u s&t&'#u&v&w&                x&s s y&z&A&                    B&C&D&E&F&G&        ",
"          H&I&v+l+J&K&L&M&N&O&                  P&M !+Q&R&                          S&T&U&V&        ",
"          W&X&Y&Z&`& *.*+*                      @*#*$*%*&*                              **=*-*      ",
"        ;*>*W+,*'*q.)*                          !*~*R {*                                  ]*        ",
"      ^*+$/*a.(*_*:*                            <*[*}*|*                                            ",
"      1*2*3*4*5*                                6*&.7*8*                                            ",
"    9*0*a*b*c*                                    d*e*f*                                            ",
"  g*h*c&i*                                        j*k*                                              ",
"  l*m*                                          n*o*p*                                              ",
"  q*                                            r*s*                                                ",
"                                                                                                    "};
