/* XPM */
static char * hilfe_xpm[] = {
"54 67 236 2",
"  	c None",
". 	c #90868B",
"+ 	c #8A8286",
"@ 	c #968A91",
"# 	c #857E82",
"$ 	c #837A7B",
"% 	c #7C767B",
"& 	c #726E6F",
"* 	c #6A6A6B",
"= 	c #66666A",
"- 	c #6A666A",
"; 	c #726A6A",
"> 	c #766E6D",
", 	c #757275",
"' 	c #6E6A6E",
") 	c #666666",
"! 	c #766E72",
"~ 	c #6E6A6A",
"{ 	c #626266",
"] 	c #7C7676",
"^ 	c #6E666A",
"/ 	c #626262",
"( 	c #625E62",
"_ 	c #6E6A66",
": 	c #666266",
"< 	c #6A6666",
"[ 	c #7A7272",
"} 	c #918283",
"| 	c #7E7271",
"1 	c #6A6262",
"2 	c #726666",
"3 	c #666262",
"4 	c #988587",
"5 	c #6A6266",
"6 	c #6E6666",
"7 	c #8D7E7D",
"8 	c #766A6A",
"9 	c #7A727A",
"0 	c #766A66",
"a 	c #7A6A66",
"b 	c #826E6E",
"c 	c #7E6E6E",
"d 	c #726A66",
"e 	c #826E6A",
"f 	c #8B6E6C",
"g 	c #866E6B",
"h 	c #7E6A6A",
"i 	c #86726F",
"j 	c #8A726E",
"k 	c #7A6E6F",
"l 	c #766666",
"m 	c #8E726A",
"n 	c #8E7670",
"o 	c #927673",
"p 	c #7E6E6A",
"q 	c #7A6A6A",
"r 	c #8F7E83",
"s 	c #827676",
"t 	c #6E6264",
"u 	c #7A6E6A",
"v 	c #8A7A77",
"w 	c #8A7673",
"x 	c #7A6668",
"y 	c #866A6A",
"z 	c #726262",
"A 	c #82726D",
"B 	c #A48E90",
"C 	c #9A7671",
"D 	c #826A6A",
"E 	c #92726E",
"F 	c #A87A73",
"G 	c #BB867C",
"H 	c #B37E77",
"I 	c #8E7270",
"J 	c #9A7676",
"K 	c #9E7671",
"L 	c #9E7A76",
"M 	c #9A7A77",
"N 	c #CA9285",
"O 	c #EAAA9B",
"P 	c #DA9786",
"Q 	c #BB7E76",
"R 	c #967270",
"S 	c #9D7E79",
"T 	c #A27A75",
"U 	c #AA7E7B",
"V 	c #AE827D",
"W 	c #AE7E72",
"X 	c #926E6B",
"Y 	c #AE8176",
"Z 	c #B6867A",
"` 	c #967672",
" .	c #D6968B",
"..	c #EFAA99",
"+.	c #EAA195",
"@.	c #CA8678",
"#.	c #A97E72",
"$.	c #867675",
"%.	c #B68680",
"&.	c #BE8A83",
"*.	c #CA8E85",
"=.	c #D29A8C",
"-.	c #BA8A7E",
";.	c #E6A697",
">.	c #CE8E85",
",.	c #8E7A7B",
"'.	c #8A7272",
").	c #A27E79",
"!.	c #C28E85",
"~.	c #B48276",
"{.	c #A67E79",
"].	c #9B7270",
"^.	c #967A77",
"/.	c #AA827D",
"(.	c #E29E8E",
"_.	c #EAAEA0",
":.	c #C68A7E",
"<.	c #DE9A8E",
"[.	c #EEA699",
"}.	c #9F8688",
"|.	c #B2867A",
"1.	c #C68E86",
"2.	c #CF9287",
"3.	c #CA8A81",
"4.	c #8E7A76",
"5.	c #A1827E",
"6.	c #D29689",
"7.	c #E2A294",
"8.	c #F2AE9A",
"9.	c #F6B2A2",
"0.	c #DAA294",
"a.	c #AA7673",
"b.	c #C38680",
"c.	c #E3998E",
"d.	c #927A78",
"e.	c #D69A8D",
"f.	c #DE9E93",
"g.	c #C7968E",
"h.	c #A6827E",
"i.	c #DEA293",
"j.	c #E6AA9B",
"k.	c #F2B2A3",
"l.	c #F6B6A6",
"m.	c #FAB6A6",
"n.	c #FABAAA",
"o.	c #EEAE9E",
"p.	c #AE7973",
"q.	c #D38D81",
"r.	c #CE968A",
"s.	c #AA8E92",
"t.	c #967E7C",
"u.	c #E2A698",
"v.	c #D39A93",
"w.	c #B6827C",
"x.	c #BA8682",
"y.	c #EFAA9F",
"z.	c #FAC2B1",
"A.	c #FEC6B6",
"B.	c #FEC2B2",
"C.	c #FEBEAA",
"D.	c #FEBAAB",
"E.	c #C5807A",
"F.	c #A28A8C",
"G.	c #C9928A",
"H.	c #FAB6AB",
"I.	c #EEAEA3",
"J.	c #F6B2A6",
"K.	c #FEB6AC",
"L.	c #FEBEAE",
"M.	c #FECABD",
"N.	c #FABEAD",
"O.	c #DE9E8E",
"P.	c #DA9286",
"Q.	c #A78687",
"R.	c #B28680",
"S.	c #F5BAAF",
"T.	c #FABEB2",
"U.	c #FABAAE",
"V.	c #F1B6AB",
"W.	c #E9AAA2",
"X.	c #DA9A8F",
"Y.	c #D69289",
"Z.	c #E6A69E",
"`.	c #F2AEA1",
" +	c #F6B6AA",
".+	c #F6AA9E",
"++	c #EAA699",
"@+	c #B78A85",
"#+	c #B2827D",
"$+	c #F2B2AA",
"%+	c #FEC2B6",
"&+	c #FEBEB3",
"*+	c #D69E8E",
"=+	c #FAB2A7",
"-+	c #D6A298",
";+	c #AE8682",
">+	c #C28A81",
",+	c #F7AEA4",
"'+	c #E2AA9E",
")+	c #FEBAB2",
"!+	c #EEB2A0",
"~+	c #A88680",
"{+	c #FEC6BA",
"]+	c #BA928C",
"^+	c #E6A293",
"/+	c #EEA29A",
"(+	c #DDA69C",
"_+	c #B18E86",
":+	c #BE8E89",
"<+	c #BA8279",
"[+	c #F6BAAA",
"}+	c #A88A86",
"|+	c #E39E95",
"1+	c #A37573",
"2+	c #F2B6A5",
"3+	c #E6AEA1",
"4+	c #C29A8E",
"5+	c #EAB3A5",
"6+	c #DAA29A",
"7+	c #DA9E91",
"8+	c #C2928C",
"9+	c #F5BEAF",
"0+	c #EEBAAA",
"a+	c #7E6667",
"b+	c #8D6A68",
"c+	c #926A68",
"d+	c #B67976",
"e+	c #976A69",
"f+	c #B07272",
"g+	c #D68686",
"h+	c #E08E8E",
"i+	c #986E6C",
"j+	c #A26E6E",
"k+	c #BE7A7A",
"l+	c #CE8286",
"m+	c #EEB2A7",
"                                            . . + . @ .                                                     ",
"                                @ . # $ % & * = - - ; > & , , & , #                                         ",
"                            % & ' ; & & * ' * = ) * ! ~ { { { = { = ! $ % ]                                 ",
"                          , * & ~ ' ' - ^ ! ~ { ) > ; ) / ( { ( { _ , ' ) = & ]                             ",
"                        % ' - - ' - ) ) ) ; - : - & ^ { / ( / / < ; & < / / { * , + @                       ",
"                    % , ' = - = = : : { - - ) / < ^ - / { / ) * * - < { { { { { ) ~ [ }                     ",
"                  | ; ; ' = : / / { : 1 * < : : < ~ - / ) ^ 2 ; _ 3 / ( ( / / ( / < ~ $ 4                   ",
"                % & ' = : : { : : 5 - - ^ = / : ^ ^ : : < _ * 6 - ) / / / / / { : - - < , 7                 ",
"                ' ^ ~ * ) ) : - ) ) * = : : / / ) 6 < : : : ) < ^ < { / ( { / / ) ) / ) 3 >                 ",
"              & ' ' 8 ~ < : ) ~ * - : : / / / / 3 < ^ ~ < 5 : : ) { / ( { / / / / / ) / ) = ]               ",
"            9 ~ - * ^ - ) ) ~ ~ * - / ( ( ( ( ( / 3 5 ^ _ ^ 6 6 < 3 { / { { { : : : { { / 3 ' $             ",
"            , : ) : = = : 5 - - - { { { { { { / ( / 3 : 6 0 > 2 6 5 < < ) : / ) ) ) 3 / / { ) &             ",
"          ! = { { { / { = * * = = / / ( ( ( ( / ( ( / { 5 a b c 8 d ^ < ) ) / 3 / { ) ) / / / = [           ",
"          ' ) / : : { { { : = { ( ( ( / ( ( / ( / / / ( 3 6 e f g h 8 6 3 : : : 5 ) { / { { { ) ~           ",
"        % : : { / : / { { : { { { / ( / / ( / ( ( ( 3 / ( 1 0 i j i h ; < < < < < 3 { 3 ) 3 / : < k         ",
"        ' ) { / : / ( ( { ( { / / { / / ( ( ( / / / / : < : l g m f e a 2 _ 6 < 5 ) / / 3 ) / ) ) k         ",
"      | 5 { { / ( { / / { / ( ( ( ( ( / / / ( ( / ( / 5 6 1 l f n o f p q ; - ) / ) ) : : ) / : ) ;         ",
"    r ' ) : 3 { { ( ( ( / / / / / / / ( ( ( / / ( { 3 < 6 < 0 e f f i e q d 6 3 : : : / / / 3 3 3 _ |       ",
"    s - 3 { / / / { { ( ( { ( ( / ( / / ( ( ( { / ( 3 < < 1 2 a e g e p q _ ) ) < < ) / : { ) : 3 < >       ",
"    & : { 3 / / / / / / { / / / / { / / / { / / / < : 1 t < < 2 0 a h a q 2 < / : ) / / ( ) / ) < 6 u       ",
"  v - 3 3 3 ( ( / / ( / / / / { / { / / / { ( ( : t 6 < 5 t 6 2 l 0 0 2 ; 2 6 3 { / / / ( / / 3 ) < ; w     ",
"  % : : { : 3 { ( ( { { 5 1 3 1 < 3 : 5 : 1 < < 1 < 6 l 2 < < 1 6 l l 6 6 ^ 8 d 6 : { / / 3 3 ) < 5 6 i     ",
"  ! : 3 3 { 3 : 3 3 3 3 : 5 1 t t t 6 2 6 t t < 6 ^ < 6 2 t < 6 6 ; 0 2 6 6 2 2 6 3 / / { : 3 3 ) < < p     ",
"  ^ ) : / 3 : 3 : 3 1 : 6 6 6 d l a l a a a 8 6 < 6 1 3 3 < t 1 : 1 5 6 6 < 5 6 d < 3 ) 3 ) ) : 3 / < 8     ",
"# 6 : : : 3 < < < 5 1 1 6 2 x u h g g h e h x 2 5 2 2 1 ( / ) 1 1 1 1 1 5 < < 5 6 6 1 < 3 3 ) ) 3 3 < 0     ",
"  - < < 3 < 5 6 5 6 2 ~ 2 8 8 h a e f g q 2 2 5 6 < d 6 3 3 1 1 : 3 3 < 6 1 5 < < < : / : : 3 3 / ) < d     ",
"  > < 6 < 6 < < < < t < < 6 6 2 l h g y 0 < 6 1 z t 6 6 t 1 < 1 5 5 1 1 6 < < 1 1 < 5 3 ) < 3 / / 3 : _ A   ",
"  7 8 ~ 5 < 5 1 ( : : ( ( 3 1 3 1 < x h l 1 t t 2 2 6 6 < 1 2 t 6 1 : 5 t t t < < < _ 6 1 < ) 3 < * < < d   ",
"  B c < 3 3 { 3 / / / / / / / / ( / 6 2 2 1 1 2 l l 2 t 1 t l z 6 1 1 < 6 d 2 2 6 t 6 d 6 6 d 2 6 < < < d   ",
"    s < { / 3 { : 3 5 3 / ( 3 ( 3 3 3 1 1 3 t 6 l 2 2 < < x y 2 t < < t l a h a l ; 0 q a e m C i _ < < ;   ",
"    [ 5 : ( 3 ( t h g D q l l 6 5 1 1 1 1 1 t 6 6 t 1 t 2 f E h z t 1 < h g y e h e g e m F G H F p 6 < d   ",
"      3 3 < 5 6 a I J K L M o E f h l 6 1 < 2 t 1 6 t 6 h f f y a t 6 x m C j g e f o K F N O P Q R 6 < 6   ",
"      ^ ; 0 D b j J S T U V W V U L E g x t 6 l x p e m C F F R a t 2 X Y Z ` i i j C F G  ...+.@.#.2 < 6   ",
"        $.b j I j i I o ` T V %.G H F R f e a q e m ` T Y G &.#.f a e T *.=.Y j e g C W -.P ..;.>.H 0 < <   ",
"        ,.w I '.b 2 6 2 h I ).%.!.G ~.{.].f h c ~ < 6 p ^./.Z Z ~.#.Y *.(._.N o e p f W ~.:.<.[.P G p 6 6   ",
"        }.o w c 8 ^ 5 < ; p ` |.1.2.3.~.W C E S i ^ > 4.5.Y G 1.6.7.;.;.8.9.0.T h l p ].a.a.b.c.[.1.e 0 <   ",
"          d.h ; > ' : : ; e R Z e.f.<.g.!.W F V h.M h.g.0.0.i.j.k.l.m.9.l.n.o.-.j 6 0 f Q Q p.q.[.r.g a 6   ",
"        s.t.| c $.s ; ; b o S -.i.k._.u.v.!.H w.x.!.6.7.y.9.l.n.z.A.z.B.C.D.9.6.` 2 t m q.c.E.E.+.6.i u ;   ",
"        F.S ^.^.^.^.o ` K T {.G.j.H.H.k.u.6.:.:.*. .7.I.J.K.L.B.A.M.A.A.B.N.l.O.#.0 2 L P ..P P.+.N h u d   ",
"        F.Q.{.{.{.h.U U /./.R.r.I.S.T.U.V.W.X.Y. .f.Z.`. +N.L.B.M.M.A.B.C.D.m.O G f m *.(..+..[.++@+u h 0   ",
"        Q.Q.R.R.#+R.R.#+V V @+v.$+U.%+&+T. +`.y.Z.Z.y.J.K.&+%+A.M.M.A.B.C.n.m.k.*+Y !.O ..=+m.9.-+o 0 p 0   ",
"          ;+#+%.x.x.x.%.w.V >+f.J.&+%+%+%+%+U.J.=+,+`.=+U.%+A.M.M.M.A.B.C.D.n.m.8.i.o.9.m.D.D.'+5.d 0 g 8   ",
"          ;+%.&.1.1.>+&.%.#+1.f.J.&+%+%+%+%+U.U.H.H. +H.)+&+%+M.M.M.B.C.C.n.D.n.D.l.n.D.D.z.!+~+0 6 p i     ",
"          Q.%.>+1.1.1.@+R.R.1.7. +)+{+{+{+U.J.J. +H.K.)+)+&+%+A.M.B.C.C.D.m.n.C.N.C.C.m.z.l.]+u < 6 i j     ",
"          Q.R.&.*.*.1.x.V R.*.^+ +&+M.{+B.J.<. ./+y.,+=+K.D.&+&+%+B.U.n.D.n.n.N.N.n.l.++(+_+| 1 1 l n       ",
"          5.R.&.:+1.x.R.U V G.^+)+{+M.{+&+ +X.<+*.<./+`.,+=+K.)+)+D.C.m.n.n.C.C.n.[+O *+}+[ 1 3 < 0 n       ",
"            {.x.&.>+<+{.T #+2.W.%+{+{+B.%+&+Z.<+<+:.Y.|+[..+=+K.D.H.D.m.D.N.N.C.N.[+O O.h.6 3 3 6 a g       ",
"            S #+x.x.V 1+F V 2.y.%+M.{+%+T.l.(.b.*.b.b.Y.c./+.+=+=+m.m.m.C.C.n.n.n.2+O j.]+u / : 6 0         ",
"            ,.U #+#+{.L K {.>+f. +U.$+;.6.2.P.P.X.2.b.*. .^+y.J.=+9.=+m.n.n.[+l.m.2+3+3+4+s 3 3 2 0         ",
"            b t.{.U {.F ).J ).w.G.e.2.>+b. .7.++++<.2.3.>.X.++`.9.=+m.H.m.m.m.l.2+!+O 3+_+c 3 3 2 2         ",
"              o L T ).{./.F o f E L ].H 2.^+!+J. +y.X.2.*.2.|+`.l.n.n.n.m.9.l.2+!+O j.3+S _ : ) 2           ",
"              c o J J K T h.{.L ` ].K G (.`.H.S. +5+6+G.*.2.^+`.=+l.l.m.l.9.8.8.o.!+!+3+v : / 3 d           ",
"                '.` o ` M {./.V %.&.:.>.X.f.|+7+ .8+%.G 1.2.7.k. +H.J.9.k.8.o.!+!+k.2+5+4.< 3 1             ",
"                q I ` o I I J K T F p.p.a.a.1+].E R H *.2.=.7.o.9.k.k.`.`...O !+l.9+z.0+n 3 3               ",
"                  '.M M o D x x a+D b+c+1+d+Q d+b.X.Z.j.f.e.7+;.I.k.!+o...O O !+l.z.A.9+^.:                 ",
"                  8 o T K L E b+c+e+1+f+E.g+h+c./+,+J.k.j.7+f.;...`.`...O O o.k.N.A.A.9+5.                  ",
"                    | ^.L L C i+j+f+k+k+l+g+h+|+`.H.J.`.`.;.7.u.O ..O ;.++O !+l.z.M.A.9+                    ",
"                      b o J J R 1+j+d+E.E.q.|+y.m+k.9.J.k.`.;.^+u.;.;.;.7.j.k.n.z.z.A.S.                    ",
"                3       i o M J K 1+a.d+x.2.f.W.W.o.o.9.k.k.o.++u.7.O.i.7.O 2+n.A.B.A.                      ",
"                  /       j E ` ` J T R.>+2.*+7.O I.l.l.m.9.o.;.(.X.O.O.i.O 2+N.z.z.                        ",
"                          q '.E ` L T %.G. .f.^+y.`.J. +[+k...7.7+ . .O.u...k.n.B.                          ",
"                            b o L ).U x. .7.7.y.k.`. +n.m.k.;.7+6.N 2.X.^+o.l.N.                            ",
"                        (     I T V #+&.6.|+Z.y.k.`.J.k.`.O 7+2.*.*.2.*+^+8.m.                              ",
"                              k M /.%.&.>.e.(.^+++`.o.o.u.=.*.>+:.N r.O.j.                                  ",
"                          {       T V x.>+1.6.f.f.7.f.e.N -.|.Z -.N =.                                      ",
"                                      {.#+x.!.1.2.N !.Z #.#.W Z                                             ",
"                                            T T T L `                                                       "};
