/* XPM */
static char * mathe_xpm[] = {
"17 17 5 1",
" 	c None",
".	c #CE2121",
"+	c #000000",
"@	c #204FDB",
"#	c #2BD622",
"    .   ++++     ",
"   ..            ",
"  . .   ++++     ",
" .  .            ",
"    .            ",
"    .    @@      ",
"    .   @  @     ",
"          @      ",
"          @      ",
"         @       ",
" ###    @@@@     ",
"    #            ",
"    #            ",
" ###       +     ",
"    #     +++    ",
"    #      +     ",
" ###             "};
