/* XPM */
static char * weiter_xpm[] = {
"46 20 101 2",
"  	c None",
". 	c #323E26",
"+ 	c #4A9934",
"@ 	c #702826",
"# 	c #F8B88A",
"$ 	c #867234",
"% 	c #4A8A32",
"& 	c #D59A69",
"* 	c #98342A",
"= 	c #A6963E",
"- 	c #906832",
"; 	c #4E8632",
"> 	c #863D2B",
", 	c #A25E33",
"' 	c #56C03A",
") 	c #41632E",
"! 	c #8C7236",
"~ 	c #AA2E2A",
"{ 	c #A2933B",
"] 	c #7E462E",
"^ 	c #52BA3A",
"/ 	c #AE5A32",
"( 	c #BB452E",
"_ 	c #612C26",
": 	c #FECA96",
"< 	c #744A2E",
"[ 	c #BA7246",
"} 	c #B25A36",
"| 	c #52B436",
"1 	c #634F2C",
"2 	c #F6CE92",
"3 	c #D03F2E",
"4 	c #9B8937",
"5 	c #6A4E2E",
"6 	c #C2683E",
"7 	c #D0322E",
"8 	c #CEAA6E",
"9 	c #4F3627",
"0 	c #B65E36",
"a 	c #6C8736",
"b 	c #FEE2AE",
"c 	c #5C9336",
"d 	c #BA4A2E",
"e 	c #B27A48",
"f 	c #3A4E28",
"g 	c #BE5E36",
"h 	c #D45232",
"i 	c #AD673B",
"j 	c #C83E2E",
"k 	c #C4A066",
"l 	c #4F9E36",
"m 	c #876D32",
"n 	c #FEFECE",
"o 	c #5A402A",
"p 	c #867636",
"q 	c #DC5836",
"r 	c #A67C44",
"s 	c #453826",
"t 	c #568E33",
"u 	c #DAB27A",
"v 	c #E2342E",
"w 	c #535C2E",
"x 	c #509533",
"y 	c #B08E54",
"z 	c #8A2A2A",
"A 	c #9E6232",
"B 	c #C4442F",
"C 	c #5E8D34",
"D 	c #539A36",
"E 	c #FEE6BE",
"F 	c #5E7632",
"G 	c #4E462A",
"H 	c #C78357",
"I 	c #A3874C",
"J 	c #907839",
"K 	c #763329",
"L 	c #CF392E",
"M 	c #EDC28B",
"N 	c #6E9A36",
"O 	c #916E35",
"P 	c #527E32",
"Q 	c #E23E32",
"R 	c #3C3D27",
"S 	c #668B36",
"T 	c #BA9A5E",
"U 	c #9C7E44",
"V 	c #668536",
"W 	c #CA4331",
"X 	c #F2C692",
"Y 	c #E35A36",
"Z 	c #569534",
"` 	c #52422A",
" .	c #FEDEAE",
"..	c #7A8A36",
"+.	c #986532",
"@.	c #C24B31",
"#.	c #7E2E2A",
"$.	c #9F8E3A",
"%.	c #937E3F",
"&.	c #A16B3A",
"*.	c #FEF2BD",
"' l                             = p                             Y @.                        ",
"' + %                           = p $                           Y d (                       ",
"' l x ;                         = J %.U                         Y @.d (                     ",
"' l l D D c                     = %.I T u X                     Y @.W B W W                 ",
"' l l D Z t P                   = %.I 8 X b E                   Y @.@.W W j j               ",
"' l D D D Z t N N               = J $.k 2 *.n *.:               q @.B W B W j Q Q           ",
"' l + D Z c t C S V             = J I T M b *. .# H             q @.@.W B j 3 L L L         ",
"' l l Z D c c C S V F           $.J %.y 8 M : # & H 6           q @.B B W j j L L L 7       ",
"' + l Z c c C C S V V a ..      { p J U y & & & H [ g 0 g       q d B B W j 3 L L L 7 v v   ",
"^ + x x x Z c C S a V a w R     $.! ! O J r e e i i 0 } ] 9     q @.( B B j j L L L L 7 ~ @ ",
"' l D Z Z t t C S a V a w R     $.$ ! O &.O &.&., , / / > 9     q d B j B j j L L 7 7 v ~ @ ",
"^ + x x Z t C C V V V w R       $.m m - - &.+.A , , ] ] 9       q ( ( ( j j j L L L L ~ @   ",
"^ + x x Z t C t V w G R         $.$ $ m - +.A A , < 9 9         q d ( B B j j L L ~ z @     ",
"^ + x x t t C V ) .             4 m m m - - +., < 9             h ( ( j ( j j L * @         ",
"^ + x x t ) f . .               4 m m m - 5 ` s s               q ( ( ( j z #._ _           ",
"| x x t ) . . f                 4 m m - 5 s s o                 h ( ( ( * _ _ #.            ",
"| + x % ) .                     4 m m - 1 s                     h ( ( ( * _                 ",
"| + ) f .                       %.m G ` s                       h ( K K _                   ",
"| ) .                           4 1 R                           h > _                       ",
"| f                             4 G                             h K                         "};
