/* XPM */
static char * zschnur_xpm[] = {
"120 10 906 2",
"  	c None",
". 	c #AAA8A1",
"+ 	c #B5B5AC",
"@ 	c #BFBFB3",
"# 	c #B9B9AE",
"$ 	c #A6ADAA",
"% 	c #989F99",
"& 	c #919993",
"* 	c #999A96",
"= 	c #566569",
"- 	c #646F6E",
"; 	c #6D7571",
"> 	c #6F7675",
", 	c #7F898B",
"' 	c #A0A4A9",
") 	c #C1C1BE",
"! 	c #B9BBBD",
"~ 	c #A1A8AD",
"{ 	c #8C929B",
"] 	c #707E85",
"^ 	c #506268",
"/ 	c #485C60",
"( 	c #4A5F64",
"_ 	c #4E6268",
": 	c #596C70",
"< 	c #394C52",
"[ 	c #32444A",
"} 	c #324249",
"| 	c #47575F",
"1 	c #6A6F78",
"2 	c #6C7176",
"3 	c #595C5F",
"4 	c #747C7D",
"5 	c #758183",
"6 	c #788F94",
"7 	c #9DA5AB",
"8 	c #9A9396",
"9 	c #5E6A6E",
"0 	c #627678",
"a 	c #A5B0AB",
"b 	c #DAD3D1",
"c 	c #D9C8C8",
"d 	c #DAC2C3",
"e 	c #BFACA9",
"f 	c #B09E9C",
"g 	c #A2929B",
"h 	c #7D7B83",
"i 	c #6F6E75",
"j 	c #555C60",
"k 	c #465458",
"l 	c #57626A",
"m 	c #47555C",
"n 	c #3E5256",
"o 	c #455A5F",
"p 	c #5A6A72",
"q 	c #78898B",
"r 	c #868589",
"s 	c #717875",
"t 	c #DDB8C6",
"u 	c #B293A4",
"v 	c #827881",
"w 	c #827E81",
"x 	c #BCB6A1",
"y 	c #ACA691",
"z 	c #8A9180",
"A 	c #73796E",
"B 	c #656766",
"C 	c #908488",
"D 	c #A68F98",
"E 	c #96868F",
"F 	c #848084",
"G 	c #6F7275",
"H 	c #716D73",
"I 	c #927B87",
"J 	c #A98797",
"K 	c #B69EA3",
"L 	c #C6B5AA",
"M 	c #A7958F",
"N 	c #898784",
"O 	c #7A8685",
"P 	c #667576",
"Q 	c #637578",
"R 	c #7B8387",
"S 	c #D1C0C7",
"T 	c #B7ACB4",
"U 	c #878D96",
"V 	c #70818B",
"W 	c #757D83",
"X 	c #717E82",
"Y 	c #57656B",
"Z 	c #535E69",
"` 	c #4B5861",
" .	c #475B60",
"..	c #768187",
"+.	c #95919A",
"@.	c #9C9A9D",
"#.	c #B5A4AB",
"$.	c #B49BA2",
"%.	c #CCBCB7",
"&.	c #D7C0C4",
"*.	c #C5B7B9",
"=.	c #C1BAB4",
"-.	c #D9D0C7",
";.	c #D4CDC5",
">.	c #B0B4AC",
",.	c #899A94",
"'.	c #607476",
").	c #5E7176",
"!.	c #687A81",
"~.	c #7E878B",
"{.	c #999098",
"].	c #78868A",
"^.	c #6B8186",
"/.	c #6C7A7F",
"(.	c #5C686A",
"_.	c #57686D",
":.	c #76818B",
"<.	c #767B85",
"[.	c #45565D",
"}.	c #2D484E",
"|.	c #37595F",
"1.	c #5D8181",
"2.	c #809594",
"3.	c #8C9393",
"4.	c #4A5E5D",
"5.	c #324A50",
"6.	c #2F4952",
"7.	c #426571",
"8.	c #6E7E88",
"9.	c #616B73",
"0.	c #314044",
"a.	c #2F4246",
"b.	c #3B4F55",
"c.	c #445A5D",
"d.	c #415052",
"e.	c #405152",
"f.	c #424D4F",
"g.	c #3A494B",
"h.	c #3E5456",
"i.	c #677374",
"j.	c #90918C",
"k.	c #8F928E",
"l.	c #96949A",
"m.	c #999095",
"n.	c #7E7778",
"o.	c #575D5D",
"p.	c #5C656B",
"q.	c #53646A",
"r.	c #405459",
"s.	c #354C50",
"t.	c #31484B",
"u.	c #2C4243",
"v.	c #2D4546",
"w.	c #334B4F",
"x.	c #375155",
"y.	c #344E54",
"z.	c #324F54",
"A.	c #344D51",
"B.	c #395155",
"C.	c #506265",
"D.	c #51686D",
"E.	c #757B85",
"F.	c #8A7E89",
"G.	c #707076",
"H.	c #596D6E",
"I.	c #465859",
"J.	c #3E5050",
"K.	c #4B5C5B",
"L.	c #606969",
"M.	c #7B7B7A",
"N.	c #817579",
"O.	c #4F5857",
"P.	c #43494B",
"Q.	c #3B4344",
"R.	c #3A4648",
"S.	c #3F4A4D",
"T.	c #5C5C63",
"U.	c #69686D",
"V.	c #606A70",
"W.	c #72767C",
"X.	c #5D5F61",
"Y.	c #5B5C5E",
"Z.	c #67676E",
"`.	c #555F61",
" +	c #556062",
".+	c #64656A",
"++	c #54545A",
"@+	c #424A4E",
"#+	c #3A474A",
"$+	c #38494C",
"%+	c #364648",
"&+	c #354042",
"*+	c #394142",
"=+	c #4C5455",
"-+	c #827B80",
";+	c #6A6C6A",
">+	c #4A5151",
",+	c #3F4F4F",
"'+	c #3B5050",
")+	c #415658",
"!+	c #4C5E60",
"~+	c #535C61",
"{+	c #61656E",
"]+	c #4C535A",
"^+	c #485B5F",
"/+	c #4D686A",
"(+	c #475A5A",
"_+	c #36494D",
":+	c #33474A",
"<+	c #33494C",
"[+	c #30494C",
"}+	c #314B4F",
"|+	c #394F54",
"1+	c #38494E",
"2+	c #344446",
"3+	c #3D4A4E",
"4+	c #475359",
"5+	c #616B70",
"6+	c #7F8689",
"7+	c #857E82",
"8+	c #59585E",
"9+	c #4D5455",
"0+	c #58605F",
"a+	c #52585A",
"b+	c #3D4B4D",
"c+	c #304445",
"d+	c #2D4244",
"e+	c #3D4F51",
"f+	c #445557",
"g+	c #42575A",
"h+	c #3C4E50",
"i+	c #374547",
"j+	c #3A4D51",
"k+	c #32484C",
"l+	c #344F52",
"m+	c #4F7172",
"n+	c #829898",
"o+	c #697E7C",
"p+	c #3A595B",
"q+	c #416A6C",
"r+	c #608589",
"s+	c #88A8A8",
"t+	c #B6BFBF",
"u+	c #7A8484",
"v+	c #6A7A78",
"w+	c #3B5457",
"x+	c #2F4D53",
"y+	c #3F6C70",
"z+	c #739698",
"A+	c #849291",
"B+	c #576E6B",
"C+	c #3B5959",
"D+	c #2C484C",
"E+	c #365052",
"F+	c #415757",
"G+	c #344D4E",
"H+	c #2C4447",
"I+	c #2D4A4D",
"J+	c #3F6265",
"K+	c #526168",
"L+	c #394446",
"M+	c #2A393B",
"N+	c #2F4145",
"O+	c #415456",
"P+	c #4D5D5B",
"Q+	c #556A67",
"R+	c #677C7E",
"S+	c #698587",
"T+	c #486B6B",
"U+	c #32585B",
"V+	c #2F5255",
"W+	c #2B4749",
"X+	c #2D4A4B",
"Y+	c #2D494C",
"Z+	c #2C4649",
"`+	c #314B50",
" @	c #37545C",
".@	c #36535A",
"+@	c #314D50",
"@@	c #365759",
"#@	c #446463",
"$@	c #4E6165",
"%@	c #4B595E",
"&@	c #465457",
"*@	c #465E5F",
"=@	c #3F585B",
"-@	c #405453",
";@	c #3B5753",
">@	c #436461",
",@	c #5B7371",
"'@	c #616D6F",
")@	c #3C4C4D",
"!@	c #34494C",
"~@	c #3B5459",
"{@	c #516F72",
"]@	c #475A5D",
"^@	c #5A6E6C",
"/@	c #758382",
"(@	c #616564",
"_@	c #45504C",
":@	c #4A5954",
"<@	c #717876",
"[@	c #89938E",
"}@	c #5F7370",
"|@	c #404F4C",
"1@	c #334141",
"2@	c #3A4F50",
"3@	c #4D6569",
"4@	c #516C6D",
"5@	c #3F595D",
"6@	c #344B51",
"7@	c #385055",
"8@	c #4C6366",
"9@	c #627072",
"0@	c #415554",
"a@	c #37514E",
"b@	c #3C5452",
"c@	c #45605F",
"d@	c #4A6D6D",
"e@	c #466565",
"f@	c #435A5B",
"g@	c #495C60",
"h@	c #4D5D60",
"i@	c #455C5B",
"j@	c #355451",
"k@	c #2C494A",
"l@	c #2C4549",
"m@	c #304B4F",
"n@	c #345255",
"o@	c #36565C",
"p@	c #345359",
"q@	c #344D52",
"r@	c #30484D",
"s@	c #2B4647",
"t@	c #315255",
"u@	c #4E747A",
"v@	c #647E81",
"w@	c #5C706F",
"x@	c #394C4C",
"y@	c #28373A",
"z@	c #2D3F42",
"A@	c #465659",
"B@	c #505B5E",
"C@	c #415659",
"D@	c #325053",
"E@	c #2C4A4F",
"F@	c #2C4D51",
"G@	c #2D4B4F",
"H@	c #395659",
"I@	c #455F5D",
"J@	c #3B4D4F",
"K@	c #2F4546",
"L@	c #2C4D4F",
"M@	c #4E7C79",
"N@	c #7A928C",
"O@	c #6D7D79",
"P@	c #49605C",
"Q@	c #3A5958",
"R@	c #66867F",
"S@	c #909C96",
"T@	c #848D89",
"U@	c #6C7573",
"V@	c #475A59",
"W@	c #788985",
"X@	c #819390",
"Y@	c #6B807E",
"Z@	c #45716D",
"`@	c #507876",
" #	c #556865",
".#	c #4F605D",
"+#	c #3F5C5A",
"@#	c #2D474A",
"##	c #364E53",
"$#	c #435B5C",
"%#	c #2F5158",
"&#	c #37595E",
"*#	c #3E4F51",
"=#	c #324344",
"-#	c #2B4245",
";#	c #2C4A4E",
">#	c #305053",
",#	c #2F4D4F",
"'#	c #345154",
")#	c #476465",
"!#	c #496967",
"~#	c #3C5657",
"{#	c #305355",
"]#	c #30575A",
"^#	c #315157",
"/#	c #304F54",
"(#	c #2C494D",
"_#	c #294547",
":#	c #2B4549",
"<#	c #314C52",
"[#	c #37555D",
"}#	c #35575D",
"|#	c #3B6468",
"1#	c #3D5F5E",
"2#	c #3F5553",
"3#	c #3D5051",
"4#	c #3F5656",
"5#	c #466364",
"6#	c #405C5D",
"7#	c #384A49",
"8#	c #324B48",
"9#	c #385657",
"0#	c #4D6C6F",
"a#	c #688285",
"b#	c #788689",
"c#	c #6C7E86",
"d#	c #5A737E",
"e#	c #6B8A92",
"f#	c #7B8588",
"g#	c #455757",
"h#	c #51726C",
"i#	c #6A9087",
"j#	c #626D6B",
"k#	c #52615E",
"l#	c #5E716E",
"m#	c #828988",
"n#	c #698E84",
"o#	c #45615A",
"p#	c #344945",
"q#	c #3D4F4C",
"r#	c #526C6D",
"s#	c #819498",
"t#	c #788C8E",
"u#	c #486167",
"v#	c #58717F",
"w#	c #758893",
"x#	c #819297",
"y#	c #667A7D",
"z#	c #354C4D",
"A#	c #304847",
"B#	c #334A47",
"C#	c #38514F",
"D#	c #3D5857",
"E#	c #384E4D",
"F#	c #324848",
"G#	c #344A4A",
"H#	c #364E4D",
"I#	c #405E5C",
"J#	c #406264",
"K#	c #3A5F63",
"L#	c #34585D",
"M#	c #365B5F",
"N#	c #3C6165",
"O#	c #38535A",
"P#	c #2F464A",
"Q#	c #2A4145",
"R#	c #2A4548",
"S#	c #2E4E50",
"T#	c #325D60",
"U#	c #4B7779",
"V#	c #536C6B",
"W#	c #324A4A",
"X#	c #2A4447",
"Y#	c #294347",
"Z#	c #2E484C",
"`#	c #364F52",
" $	c #354B4E",
".$	c #334D50",
"+$	c #2E4A4F",
"@$	c #2F4F56",
"#$	c #2F5357",
"$$	c #335457",
"%$	c #3A585C",
"&$	c #3D5658",
"*$	c #37494C",
"=$	c #30474C",
"-$	c #446E6D",
";$	c #374A4A",
">$	c #293D3F",
",$	c #2A4243",
"'$	c #2F4849",
")$	c #415656",
"!$	c #405151",
"~$	c #2D4040",
"{$	c #2E4142",
"]$	c #506966",
"^$	c #415857",
"/$	c #505F5C",
"($	c #47504D",
"_$	c #314541",
":$	c #2E4848",
"<$	c #2B4244",
"[$	c #2A4347",
"}$	c #355255",
"|$	c #2D4C52",
"1$	c #385D62",
"2$	c #4A6769",
"3$	c #385B5C",
"4$	c #305157",
"5$	c #38575C",
"6$	c #39575C",
"7$	c #324D53",
"8$	c #2F4A51",
"9$	c #2D4A4F",
"0$	c #2E4C4F",
"a$	c #2D4E52",
"b$	c #2E5156",
"c$	c #325859",
"d$	c #304A4E",
"e$	c #31484C",
"f$	c #2E474B",
"g$	c #304F55",
"h$	c #2F4C52",
"i$	c #2A474D",
"j$	c #2E494F",
"k$	c #314D53",
"l$	c #3B5C65",
"m$	c #49666A",
"n$	c #3A5254",
"o$	c #334A4C",
"p$	c #304749",
"q$	c #334B4B",
"r$	c #314746",
"s$	c #2B4241",
"t$	c #2C4646",
"u$	c #2F4A4D",
"v$	c #365258",
"w$	c #40575D",
"x$	c #4B5B5E",
"y$	c #556568",
"z$	c #506367",
"A$	c #8C9495",
"B$	c #8B8A8B",
"C$	c #697D7A",
"D$	c #6C8A87",
"E$	c #5D6563",
"F$	c #485152",
"G$	c #4D5B5C",
"H$	c #686A6B",
"I$	c #5B7871",
"J$	c #55706C",
"K$	c #526663",
"L$	c #657573",
"M$	c #A6A3A9",
"N$	c #A9A4A7",
"O$	c #5A6364",
"P$	c #3B4F54",
"Q$	c #638186",
"R$	c #66767A",
"S$	c #4D5D5F",
"T$	c #39494D",
"U$	c #2B4344",
"V$	c #2E4747",
"W$	c #314D4A",
"X$	c #324B4B",
"Y$	c #304A4D",
"Z$	c #365257",
"`$	c #405B61",
" %	c #3E5B5F",
".%	c #4B676A",
"+%	c #4C6269",
"@%	c #364E55",
"#%	c #2C464C",
"$%	c #335156",
"%%	c #2F454C",
"&%	c #2A4146",
"*%	c #2A4449",
"=%	c #2B4A4E",
"-%	c #315258",
";%	c #33575C",
">%	c #3A5C5F",
",%	c #365155",
"'%	c #294649",
")%	c #2B484B",
"!%	c #2D4A50",
"~%	c #335159",
"{%	c #426469",
"]%	c #43666B",
"^%	c #3C595E",
"/%	c #355258",
"(%	c #35565C",
"_%	c #386367",
":%	c #487171",
"<%	c #557375",
"[%	c #3D5E61",
"}%	c #2B4349",
"|%	c #2B4A4F",
"1%	c #3B6067",
"2%	c #3D5E64",
"3%	c #2D494E",
"4%	c #2E4E54",
"5%	c #356163",
"6%	c #547B7D",
"7%	c #6C8488",
"8%	c #5C787C",
"9%	c #4A7B78",
"0%	c #6A8C88",
"a%	c #5D7A77",
"b%	c #416664",
"c%	c #44686A",
"d%	c #52696E",
"e%	c #455D5E",
"f%	c #375C60",
"g%	c #355D62",
"h%	c #3E656C",
"i%	c #4B696C",
"j%	c #344E53",
"k%	c #2F4F57",
"l%	c #41646C",
"m%	c #436164",
"n%	c #385D63",
"o%	c #3D5D65",
"p%	c #3F6067",
"q%	c #436264",
"r%	c #3D5759",
"s%	c #34515A",
"t%	c #34525A",
"u%	c #335B61",
"v%	c #37656D",
"w%	c #3A646C",
"x%	c #345A5F",
"y%	c #425F68",
"z%	c #4B6970",
"A%	c #436571",
"B%	c #48616E",
"C%	c #5D7182",
"D%	c #4D6272",
"E%	c #364D5A",
"F%	c #2F4853",
"G%	c #2D4A53",
"H%	c #2D4753",
"I%	c #334F5B",
"J%	c #334B57",
"K%	c #344E5A",
"L%	c #3F5663",
"M%	c #3E5962",
"N%	c #46646E",
"O%	c #405E67",
"P%	c #37535B",
"Q%	c #365357",
"R%	c #355253",
"S%	c #315154",
"T%	c #3D5D63",
"U%	c #4C6268",
"V%	c #3C5056",
"W%	c #31474C",
"X%	c #3F545D",
"Y%	c #49585E",
"Z%	c #405356",
"`%	c #627277",
" &	c #848D8D",
".&	c #9C9B99",
"+&	c #8B8280",
"@&	c #36433F",
"#&	c #2E3C3B",
"$&	c #334342",
"%&	c #354443",
"&&	c #4B605C",
"*&	c #A8A09D",
"=&	c #A1A5A1",
"-&	c #A29E9E",
";&	c #6E6E6E",
">&	c #374142",
",&	c #526A6C",
"'&	c #405156",
")&	c #2E4045",
"!&	c #334950",
"~&	c #455B5F",
"{&	c #355156",
"]&	c #325154",
"^&	c #395B5D",
"/&	c #3F606B",
"(&	c #486C7B",
"_&	c #507983",
":&	c #547887",
"<&	c #466872",
"[&	c #3E5C68",
"}&	c #3C5160",
"|&	c #324652",
"1&	c #2C444C",
"2&	c #304A52",
"3&	c #2B444B",
"4&	c #2D474E",
"5&	c #2B4952",
"6&	c #305056",
"7&	c #35565D",
"8&	c #36545D",
"9&	c #345459",
"0&	c #33555A",
"a&	c #345C64",
"b&	c #325A5F",
"c&	c #34555D",
"d&	c #3A5861",
"e&	c #435D60",
"f&	c #475E5D",
"g&	c #3E5C5D",
"h&	c #436265",
"i&	c #4A6A70",
"j&	c #3A626B",
"k&	c #33555B",
"l&	c #385358",
"m&	c #405B5E",
"n&	c #2F4A52",
"o&	c #2D4F56",
"p&	c #3D6064",
"q&	c #526F6F",
"r&	c #456B72",
"s&	c #3D6770",
"t&	c #39636B",
"u&	c #527978",
"v&	c #5F7473",
"w&	c #4E6464",
"x&	c #48726F",
"y&	c #5C847F",
"z&	c #3F585A",
"A&	c #395958",
"B&	c #516164",
"C&	c #495A58",
"D&	c #355054",
"E&	c #345157",
"F&	c #395358",
"G&	c #36454E",
"H&	c #3B4B5A",
"I&	c #445060",
"J&	c #3E4F60",
"K&	c #3D5562",
"L&	c #3F5A62",
"M&	c #375458",
"N&	c #32494D",
"O&	c #394E57",
"P&	c #4D5D6D",
"Q&	c #475461",
"R&	c #3E6875",
"S&	c #588692",
"T&	c #617A86",
"U&	c #596F7B",
"V&	c #798093",
"W&	c #797A8B",
"X&	c #717188",
"Y&	c #63596D",
"Z&	c #7F7087",
"`&	c #6F6881",
" *	c #62607C",
".*	c #525971",
"+*	c #3F5367",
"@*	c #4F5A75",
"#*	c #676A89",
"$*	c #636685",
"%*	c #5D6382",
"&*	c #5A6481",
"**	c #4C687D",
"=*	c #527582",
"-*	c #587E88",
";*	c #517480",
">*	c #4A6573",
",*	c #3F5860",
"'*	c #354F57",
")*	c #3B515A",
"!*	c #435059",
"~*	c #3C4A55",
"{*	c #3F5B66",
"]*	c #546976",
"^*	c #4D5761",
"/*	c #505965",
"(*	c #5A616D",
"_*	c #445256",
":*	c #505155",
"<*	c #3F3D3E",
"[*	c #30393B",
"}*	c #3E4B4E",
"|*	c #4B5357",
"1*	c #4D5357",
"2*	c #485158",
"3*	c #505556",
"4*	c #5D5858",
"5*	c #605E5E",
"6*	c #495050",
"7*	c #404A4D",
"8*	c #434F55",
"9*	c #44545B",
"0*	c #4D5960",
"a*	c #55616D",
"b*	c #3E535C",
"c*	c #375059",
"d*	c #4D5B62",
"e*	c #3B4C54",
"f*	c #36515A",
"g*	c #3F5C66",
"h*	c #56717E",
"i*	c #638091",
"j*	c #5F848F",
"k*	c #537078",
"l*	c #48636A",
"m*	c #4C6479",
"n*	c #626889",
"o*	c #696687",
"p*	c #4D5774",
"q*	c #5D6281",
"r*	c #48556B",
"s*	c #344655",
"t*	c #314958",
"u*	c #364F5E",
"v*	c #364B57",
"w*	c #4F5F70",
"x*	c #747C92",
"y*	c #657586",
"z*	c #61727E",
"A*	c #617E89",
"B*	c #4F707C",
"C*	c #3A4F5A",
"D*	c #4C5968",
"E*	c #495662",
"F*	c #344148",
"G*	c #2B3F44",
"H*	c #2E454C",
"I*	c #3C5259",
"J*	c #39515D",
"K*	c #384C58",
"L*	c #3E5061",
"M*	c #3F4C5C",
"N*	c #36404C",
"O*	c #374B59",
"P*	c #3F535D",
"Q*	c #384B51",
"R*	c #344A4E",
"S*	c #355155",
"T*	c #324D52",
"U*	c #364C4E",
"V*	c #2E3F40",
"W*	c #2D393D",
"X*	c #3B4A4F",
"Y*	c #455A5E",
"Z*	c #323D42",
"`*	c #2A3538",
" =	c #253236",
".=	c #4C4A5B",
"+=	c #3C404C",
"@=	c #3E464F",
"#=	c #374148",
"$=	c #2C383F",
"%=	c #494E56",
"&=	c #464951",
"*=	c #493C47",
"==	c #514454",
"-=	c #403A47",
";=	c #353645",
">=	c #474254",
",=	c #524659",
"'=	c #443F4F",
")=	c #4C4455",
"!=	c #494254",
"~=	c #373E49",
"{=	c #303D43",
"]=	c #39454B",
"^=	c #363F46",
"/=	c #2F363D",
"(=	c #2A3439",
"_=	c #2A343A",
":=	c #283037",
"<=	c #3B3F49",
"[=	c #49505D",
"}=	c #4F4E59",
"|=	c #3D3942",
"1=	c #423E49",
"2=	c #3A3A42",
"3=	c #282E31",
"4=	c #272A2D",
"5=	c #2A2B30",
"6=	c #2F333A",
"7=	c #3E3F48",
"8=	c #483F4A",
"9=	c #473E48",
"0=	c #423C47",
"a=	c #38353D",
"b=	c #282A2D",
"c=	c #2A2D30",
"d=	c #2F373A",
"e=	c #373C42",
"f=	c #373A41",
"g=	c #3B3A42",
"h=	c #54505D",
"i=	c #4A4B55",
"j=	c #363D45",
"k=	c #383B46",
"l=	c #2E333B",
"m=	c #2E3A43",
"n=	c #323F47",
"o=	c #303C42",
"p=	c #363C45",
"q=	c #343941",
"r=	c #2B3136",
"s=	c #283136",
"t=	c #353944",
"u=	c #4D4357",
"v=	c #524557",
"w=	c #3B3949",
"x=	c #4C4356",
"y=	c #3D3A48",
"z=	c #343541",
"A=	c #343C4A",
"B=	c #3E424F",
"C=	c #383945",
"D=	c #6E5F72",
"E=	c #524C58",
"F=	c #4D4B55",
"G=	c #4A5158",
"H=	c #3E424A",
"I=	c #3B4851",
"J=	c #3D444E",
"K=	c #3B3E47",
"L=	c #444554",
"M=	c #464250",
". + @ #                                                                                                                                                                                                                                 $ % & * ",
"= - ; > , ' )                                                                                                                                                                                                                   ! ~ { ] ^ / ( _ ",
": < [ } | 1 2 3 4 5 6 7 8 9 0 a       b c d e   f g h i j k l m n o p q r             s           t u v w         x y z A B C D E F G H I J K   L M N O P Q R S T U V W X Y Z `  ...+.@.#.$.  %.&.*.=.-.;.>.,.'.).!.~.{.].^./.(._.:.<.[.}.|.1.2.",
"3.4.5.6.7.8.9.0.a.b.c.d.e.f.g.h.i.j.k.l.m.n.o.p.q.r.s.t.u.v.w.x.y.z.A.B.C.D.E.F.G.H.I.J.K.L.M.N.O.P.Q.R.S.T.U.V.W.X.Y.Z.`. +.+++@+#+$+%+&+*+=+-+;+>+,+'+)+!+~+{+]+^+/+(+_+:+<+[+}+|+1+2+3+4+5+6+7+8+9+0+a+b+c+d+e+f+g+h+i+j+k+l+m+n+o+p+q+r+s+t+",
"u+v+w+x+y+z+A+B+C+D+E+F+G+H+I+J+K+L+M+N+O+P+Q+R+S+T+U+V+W+X+Y+Z+`+ @.@+@@@#@$@%@&@*@=@-@;@>@,@'@)@!@~@{@]@J.^@/@(@_@:@<@[@}@|@1@2@3@4@5@6@7@8@9@0@a@b@c@d@e@f@g@h@i@j@k@l@m@n@o@p@q@r@s@t@u@v@w@x@y@z@A@B@C@D@E@F@G@H@I@J@K@L@M@N@O@P@Q@R@S@T@U@",
"V@W@X@Y@Z@`@ #.#+#@###$#E+G@%#&#*#=#-#;#>#,#'#)#!#~#{#]#^#/#(#_#:#<#[#}#|#1#2#3#4#5#6#7#8#9#0#a#b#c#d#e#f#g#h#i#j#k#l#m#n#o#p#q#r#s#t#u#v#w#x#y#z#A#B#C#D#E#F#G#H#I#J#K#L#M#N#O#P#Q#R#S#T#U#V#W#X#Y#Z#`# $.$+$@$#$$$%$&$*$=$M#-$;$>$,$'$)$!$~${$",
"]$^$/$($_$:$<$[$}$Z#|$1$2$3$4$5$6$7$8$9$0$a$b$c$d$e$f$(#g$h$h$(#i$j$k$9$l$m$n$o$p$q$r$s$t$u$v$w$x$y$z$( A$B$C$D$E$F$G$H$I$J$K$L$M$N$O$P$Q$R$S$T$>$U$V$W$X$Y$Z$`$ %.%+%@%#%G@$%%%&%*%=%-%;%>%,%'%)%!%~%{%]%^%/%(%_%:%<%[%}%|%1%2%3%4%5%6%7%8%9%0%",
"a%b%c%d%e%f%g%h%i%j%k%l%m%n%o%p%q%r%s%t%u%v%w%x%y%z%A%B%C%D%E%F%G%H%I%J%K%L%M%N%O%P%Q%R%S%T%U%V%W%X%Y%Z%`% &.&+&@&#&$&%&&&k.*&=&-&;&>&_+,&'&)&!&~&{&]&^&/&(&_&:&<&[&}&|&1&2&6.3&4&5&6&7&8&9&0&a&b&c&d&e&f&g&h&i&j&k&l&m&n&o&p&q&r&s&t&u&v&w&x&y&",
"z&A&5#B&C&D&E&F&< G&H&I&J&K&L&M&N&O&P&Q&R&S&T&U&V&W&X&Y&Z&`& *.*+*@*#*$*%*&***=*-*;*>*,*'*)*!*~*{*]*^*/*(*_*:*<*[*}*|*1*2*3*4*5*6*7*8*9*0*a*b*c*d*e*f*g*h*i*j*k*l*m*n*o*p*q*r*s*t*u*v*w*x*y*z*A*B*C*D*E*F*G*H*I*J*K*L*M*N*O*P*Q*R*S*T*U*V*W*X*Y*",
"      Z*  `* =          .=+=@=#=$=          %=&=    *=      ==-=;=>=,='=)=!=~={=]=^=/=(=_=:=  <=[=}=|=1=2=3=4=5=6=7=8=9=0=a=5=b=c=d=e=f=g=h=i=j=k=l=m=n=o=p=q=r=s=t=u=v=w=x=y=z=A=B=C=  D=E=F=G=H=            I=J=K=L=M=                        "};
